<svg xmlns="http://www.w3.org/2000/svg" viewBox="0 0 512.32 1051.56"><defs><style>.cls-1{isolation:isolate;}.cls-2{fill:#4d4d4d;}.cls-3,.cls-5{fill:#fff;}.cls-4{fill:#0da5bf;}.cls-11,.cls-5{opacity:0.3;}.cls-6{fill:gray;}.cls-7{fill:#ffb294;}.cls-8{fill:#25435c;}.cls-11,.cls-9{fill:#cf3e2d;}.cls-10{fill:#ff4a51;}.cls-11,.cls-12{mix-blend-mode:multiply;}.cls-12{fill:#227fbc;opacity:0.5;}.cls-13{fill:#172935;}.cls-14{fill:#722811;}</style></defs><g class="cls-1"><g id="Calque_1" data-name="Calque 1"><path d="M1020.07,77.57V755.63c0,18.63-13.07,41.28-29.2,50.59l-277,159.94-8.65,25.09-26-15c-5.29-3-8.56-9.59-8.56-18.91V234c0-18.63,13.08-41.28,29.21-50.59l291-168c7.87-4.55,15-5.05,20.26-2.23,0,0,26,15,26,15Z" transform="translate(-670.68 -11.44)"/><path class="cls-2" d="M724.81,988.6l291-168c16.13-9.32,29.2-32,29.2-50.59V46.66c0-18.62-13.07-26.17-29.2-16.86l-291,168c-16.13,9.32-29.21,32-29.21,50.59V971.74C695.6,990.36,708.68,997.91,724.81,988.6Z" transform="translate(-670.68 -11.44)"/><path class="cls-3" d="M1032.54,53.85V730.76c0,10.71-7.48,23.74-16.77,29.1l-291,167.94c-5.42,3.16-10.25,3-13.29.06-2.19-1.94-3.48-5.29-3.48-9.74V241.21c0-10.71,7.55-23.68,16.77-29l291-168A13.64,13.64,0,0,1,1024,42C1029.12,42.3,1032.54,46.62,1032.54,53.85Z" transform="translate(-670.68 -11.44)"/><path class="cls-4" d="M1027.44,51.72V728.63c0,10.71-7.55,23.68-16.77,29l-291,168a13.57,13.57,0,0,1-8.2,2.19c-2.19-1.94-3.48-5.29-3.48-9.74V241.21c0-10.71,7.55-23.68,16.77-29l291-168A13.64,13.64,0,0,1,1024,42C1026.15,43.91,1027.44,47.27,1027.44,51.72Z" transform="translate(-670.68 -11.44)"/><polygon class="cls-5" points="246.62 97.03 157.65 148.4 43.78 380.76 43.78 501.91 246.62 97.03"/><polygon class="cls-5" points="43.78 672.02 43.78 742 350.3 144.54 350.3 76.16 43.78 672.02"/><path class="cls-5" d="M714.47,781.24V918.12a12,12,0,0,0,.3,2.81,11.71,11.71,0,0,0,1.7-.85L792.9,876,1021,406.81V178.44Z" transform="translate(-670.68 -11.44)"/><path class="cls-6" d="M835,908.73,905.57,868C913,863.72,919,853.23,919,844.69s-6.06-12.05-13.46-7.77L835,877.65c-7.4,4.27-13.46,14.76-13.46,23.31S827.62,913,835,908.73Z" transform="translate(-670.68 -11.44)"/><path class="cls-3" d="M874.59,270.24c-11.29,6.52-20.47,2.64-20.47-8.65s9.18-25.77,20.47-32.28,20.47-2.64,20.47,8.64S885.88,263.72,874.59,270.24Zm0-34.48c-7.73,4.46-14,14.38-14,22.1s6.29,10.39,14,5.93,14-14.38,14-22.11S882.32,231.29,874.59,235.76Z" transform="translate(-670.68 -11.44)"/><path class="cls-3" d="M906.46,203.66a1.91,1.91,0,0,1-1.76.26c-7.91-3.8-18.6-2.23-30.11,4.42a79.61,79.61,0,0,0-18.09,14.58c-1.18,1.27-2.65,1.62-3.23.75s-.09-2.6,1.12-3.88a89.09,89.09,0,0,1,20.2-16.29c12.85-7.42,24.79-9.17,33.63-4.93.92.44.87,2-.1,3.47A5,5,0,0,1,906.46,203.66Z" transform="translate(-670.68 -11.44)"/><path class="cls-3" d="M911.75,254a2.37,2.37,0,0,1-1.28.38c-1.14-.06-1.48-1.36-.77-2.9,4.14-9,6.32-17.83,6.32-25.65a30.62,30.62,0,0,0-2.33-12.4c-.45-1,.22-2.77,1.48-3.94s2.64-1.3,3.08-.29a34,34,0,0,1,2.61,13.83c0,8.73-2.44,18.64-7.06,28.66A5.35,5.35,0,0,1,911.75,254Z" transform="translate(-670.68 -11.44)"/><path class="cls-3" d="M874.59,296.05c-9,5.19-17.72,7.64-25.23,7.09-1.11-.09-1.43-1.4-.7-2.95s2.22-2.72,3.35-2.64c14.69,1.1,35.28-11.91,48.86-30.92,1-1.44,2.56-2.17,3.41-1.64s.7,2.16-.33,3.6C895.7,280.13,885.28,289.87,874.59,296.05Z" transform="translate(-670.68 -11.44)"/><path class="cls-3" d="M835.72,295c-.87.5-1.72.52-2.14-.06-3.44-4.58-5.27-10.95-5.27-18.42,0-10.59,3.68-23.07,10.34-35.12.84-1.53,2.37-2.57,3.41-2.32s1.19,1.67.35,3.2c-6,10.8-9.26,22-9.26,31.45,0,6.69,1.63,12.39,4.71,16.49.62.83.16,2.56-1,3.86A4.88,4.88,0,0,1,835.72,295Z" transform="translate(-670.68 -11.44)"/><path class="cls-3" d="M804.22,292c-.89.51-1.61.2-1.61-.68V246l-62,35.79c-.89.52-1.61.21-1.61-.68a3.35,3.35,0,0,1,1.61-2.54L805.83,241v48.5A3.36,3.36,0,0,1,804.22,292Z" transform="translate(-670.68 -11.44)"/><path class="cls-3" d="M976.1,192.77l-57.66,33.29c-.89.52-1.61.21-1.61-.68a3.33,3.33,0,0,1,1.61-2.54l54.44-31.43V116a3.35,3.35,0,0,1,1.61-2.55c.89-.51,1.61-.21,1.61.68Z" transform="translate(-670.68 -11.44)"/><path class="cls-3" d="M1002.45,564.05c-.89.51-1.62.21-1.62-.68V340.74l-56,32.32V209.2a3.34,3.34,0,0,1,1.62-2.54c.89-.52,1.61-.21,1.61.68V368l56-32.33V561.5A3.35,3.35,0,0,1,1002.45,564.05Z" transform="translate(-670.68 -11.44)"/><path class="cls-3" d="M874.59,514.92c-.89.51-1.62.2-1.62-.68V294.56a3.34,3.34,0,0,1,1.62-2.54c.88-.52,1.61-.21,1.61.68V512.37A3.39,3.39,0,0,1,874.59,514.92Z" transform="translate(-670.68 -11.44)"/><path class="cls-3" d="M810.51,398.47l-32.8,18.94c-.88.51-1.61.2-1.61-.69a3.37,3.37,0,0,1,1.61-2.54l32.8-18.93c.89-.52,1.61-.21,1.61.68A3.33,3.33,0,0,1,810.51,398.47Z" transform="translate(-670.68 -11.44)"/><path class="cls-3" d="M946.47,644.64c-.89.51-1.62.21-1.62-.68V371.45a3.34,3.34,0,0,1,1.62-2.54c.89-.52,1.61-.21,1.61.68V642.1A3.35,3.35,0,0,1,946.47,644.64Z" transform="translate(-670.68 -11.44)"/><path class="cls-3" d="M748.68,642.78c-.89.51-1.61.2-1.61-.68V498l29-16.76V305l54.63-31.54c.89-.52,1.62-.21,1.62.68a3.34,3.34,0,0,1-1.62,2.54l-51.4,29.68V482.6l-29,16.77V640.23A3.38,3.38,0,0,1,748.68,642.78Z" transform="translate(-670.68 -11.44)"/><path class="cls-3" d="M827.17,548l-78.49,45.31c-.89.52-1.61.21-1.61-.68a3.33,3.33,0,0,1,1.61-2.54l78.49-45.32c.89-.51,1.62-.21,1.62.68A3.38,3.38,0,0,1,827.17,548Z" transform="translate(-670.68 -11.44)"/><path class="cls-3" d="M747.34,275.94c0,4.08-3.31,9.3-7.4,11.66s-7.39,1-7.39-3.12,3.31-9.31,7.39-11.67S747.34,271.86,747.34,275.94Z" transform="translate(-670.68 -11.44)"/><path class="cls-3" d="M820.72,390.29c0,4.08-3.31,9.31-7.39,11.66s-7.39,1-7.39-3.12,3.31-9.31,7.39-11.66S820.72,386.21,820.72,390.29Z" transform="translate(-670.68 -11.44)"/><path class="cls-3" d="M981.88,110.82c0,4.08-3.31,9.3-7.39,11.66s-7.39,1-7.39-3.12,3.31-9.31,7.39-11.66S981.88,106.74,981.88,110.82Z" transform="translate(-670.68 -11.44)"/><path class="cls-3" d="M834.57,542.11c0,4.09-3.31,9.31-7.39,11.66s-7.4,1-7.4-3.12,3.31-9.3,7.4-11.66S834.57,538,834.57,542.11Z" transform="translate(-670.68 -11.44)"/><path class="cls-3" d="M801.5,721.69c0,4.08-3.31,9.3-7.39,11.66s-7.39,1-7.39-3.13,3.31-9.3,7.39-11.66S801.5,717.61,801.5,721.69Z" transform="translate(-670.68 -11.44)"/><path class="cls-3" d="M874.59,614.57c0,4.09-3.31,9.31-7.4,11.67s-7.39,1-7.39-3.13,3.31-9.3,7.39-11.66S874.59,610.49,874.59,614.57Z" transform="translate(-670.68 -11.44)"/><path class="cls-3" d="M756.07,636.89c0,4.09-3.31,9.31-7.39,11.67s-7.39,1-7.39-3.13,3.31-9.3,7.39-11.66S756.07,632.81,756.07,636.89Z" transform="translate(-670.68 -11.44)"/><path class="cls-3" d="M882,509c0,4.08-3.31,9.3-7.39,11.66s-7.4,1-7.4-3.13,3.31-9.3,7.4-11.66S882,505,882,509Z" transform="translate(-670.68 -11.44)"/><path class="cls-3" d="M953.86,638.76c0,4.08-3.31,9.3-7.39,11.66s-7.4,1-7.4-3.13,3.31-9.3,7.4-11.66S953.86,634.68,953.86,638.76Z" transform="translate(-670.68 -11.44)"/><path class="cls-3" d="M1009.84,556.56c0,4.08-3.31,9.3-7.39,11.66s-7.4,1-7.4-3.13,3.31-9.3,7.4-11.66S1009.84,552.47,1009.84,556.56Z" transform="translate(-670.68 -11.44)"/><path class="cls-3" d="M794.11,727.57c-.89.51-1.61.21-1.61-.68V566.4a3.35,3.35,0,0,1,1.61-2.54c.89-.51,1.61-.21,1.61.68V725A3.33,3.33,0,0,1,794.11,727.57Z" transform="translate(-670.68 -11.44)"/><path class="cls-3" d="M867.19,620.45l-73.08,42.2c-.89.51-1.61.21-1.61-.68a3.33,3.33,0,0,1,1.61-2.54l73.08-42.2c.89-.51,1.62-.21,1.62.68A3.34,3.34,0,0,1,867.19,620.45Z" transform="translate(-670.68 -11.44)"/><path class="cls-7" d="M1153.86,607.06l-3.46,9.22L1139,625.14l-6.83,13.46-1.66,7.93c0,5.35,4.71,4.61,5.45,1l.87-3.83,5.37-4.93,2,22.5-7,21.26,5.05,4.19,19.3-8,8.49-11.88V609.64Z" transform="translate(-670.68 -11.44)"/><path class="cls-7" d="M1083.92,987.82a26.89,26.89,0,0,1-1.83,6.68c-7.48-2.66-14.2-2-19.48,5.06l-5.9,9.22,25.38,21.77H1108l11.44-11.07-4.79-24.27C1104.47,995.23,1094.6,992.39,1083.92,987.82Z" transform="translate(-670.68 -11.44)"/><path class="cls-8" d="M1118.4,1014.32c-3.59,7.93-18.62,13.09-33.66,10.32-13.67-6.06-20.22-11.11-23.61-20.1,4.09-5.41,12.22-9.09,20.68-9.83l2-4.82-10.92-6.19c-11.17-5-18.71-1.58-24,7-4,16,.93,26.64,12,33.57l16.6,12.72c6.41,15.72,13.56,23.8,26.37,22,14-2,19-7.63,19.86-19.51C1123.08,1030.4,1122.47,1020.56,1118.4,1014.32Z" transform="translate(-670.68 -11.44)"/><path class="cls-9" d="M1119.42,794.46l15.19-162-81.68,63.24L1063,791.33c5.4,54.94,16.24,173.63,11,203.88,11.65,14,42.49,14,52.65,14C1113.78,943.75,1160.08,868.63,1119.42,794.46Z" transform="translate(-670.68 -11.44)"/><path class="cls-7" d="M935.34,1014.32H919.11l-11.62,10.51,11.62,20.47,85.44-6.64,2.36-19.55-5.57-15.12c-11.8-.59-23.61-1.17-35.41-4.73C961.87,1009.45,950.74,1013.68,935.34,1014.32Z" transform="translate(-670.68 -11.44)"/><path class="cls-10" d="M1057.06,710.55l-57.8,102.13c26,56.57,10.63,181.89,16.46,197.77-8,10.3-62.14,4.79-58.52-5,4.22-22.88,4.22-36,2.21-57.22-2.66-28.51-8.75-71.15-12.64-170.17,12.05-56.31,24.89-108.08,40.11-146.9a273.44,273.44,0,0,1,11.54-25.86l132.06-20C1150.25,672.77,1102.81,691.5,1057.06,710.55Z" transform="translate(-670.68 -11.44)"/><path class="cls-8" d="M908.41,1014.32c-17.27.47-17,12.17-14.38,20.65,4.48,11.43,18.78,20.78,31.35,21,14.37.29,49.8,3.69,49.8,3.69,12.89,5.15,22.35,3.53,33.83.26,4.73-14.72,5.79-28.17-2.1-40.84-8.12,21.77-43.63,23.7-76,19.35-7.41-1-14.42-9.34-10-15.35,3-4.05,7.6-7.11,14.4-8.79Z" transform="translate(-670.68 -11.44)"/><path class="cls-11" d="M1056.74,640.5c-38.49,6.35-65.84,72.13-92.47,141.4-11.15,33.05-7.91,101.73-4.86,166.15-2.66-28.32-8.75-71-12.64-170,12.05-56.31,24.89-108.08,40.11-146.9Z" transform="translate(-670.68 -11.44)"/><path class="cls-8" d="M1147.29,618.7c5.9-25.09,2.93-61.81,3.11-100.17l-15-50.94,10.38-68.24c23,4.27,30.33,57.79,35.2,118.81,7,26.17-6.27,70.57-11.06,108.19C1162.67,628.9,1155.1,626,1147.29,618.7Z" transform="translate(-670.68 -11.44)"/><path class="cls-8" d="M1122.23,531.43c-.33,20.13,4.37,20.37,19.3,71.19-17.65,27.72-57,38.27-97.18,38.27-16.58,0-37.45-3.46-58-8.41-2.14-35,13.53-81,6.52-109.88-33.74-9.32-20-43.06-10.07-62.69a72,72,0,0,0,3.55-8.42,93,93,0,0,0,4.95-32s51.48-15.6,76.8-26,77.71,5.86,77.71,5.86,12.87,8.66,6.43,43.88C1144.09,488.2,1122.72,510.39,1122.23,531.43Z" transform="translate(-670.68 -11.44)"/><path class="cls-12" d="M1044.35,640.89c-16.58,0-37.45-3.46-58-8.41-2.14-35,13.53-81,6.52-109.88-33.74-9.32-20-43.06-10.07-62.69a72,72,0,0,0,3.55-8.42c5.12-1.07,10.31-2.06,15.43-3.05,0,72.84,12.78,91.9,19.88,125.39C1027.44,601.3,1044.35,640.89,1044.35,640.89Z" transform="translate(-670.68 -11.44)"/><path d="M1013.64,281.72s-48.44,33.44,15.41,112.16c0,0,44,20,65-16.37s25.32-89.18-13.21-109S1009.24,259.7,1013.64,281.72Z" transform="translate(-670.68 -11.44)"/><path class="cls-7" d="M1030.44,365.26l4.93,46.16c11.13,9.19,52.67-2.69,51.63-17l-13.24-38.29Z" transform="translate(-670.68 -11.44)"/><path class="cls-13" d="M1034.58,404l-12.92,5.9s19.27,20.76,53.73,3.39c21.26-10.72,19.77-23.2,19.77-23.2L1084.44,387C1079.44,396.85,1056.77,405.22,1034.58,404Z" transform="translate(-670.68 -11.44)"/><path class="cls-14" d="M1013.64,281.72s-48.44,33.44,15.41,112.16c0,0,44,20,65-16.37s25.32-89.18-13.21-109S1009.24,259.7,1013.64,281.72Z" transform="translate(-670.68 -11.44)"/><path class="cls-8" d="M1014.33,457.43a8.89,8.89,0,0,1-.19,1.13c-.8,6.07-3,11.28-6.78,14.22a11.88,11.88,0,0,1-8.9,2.42c-10.1-.57-19.48-1.09-28.15-1.66-15.21-1-51.29-10.74-61.57-13.54-6.59-1.75-12.13-4.12-16.54-7.39C879,434.7,875.4,374.4,875.4,340.73c4.12-6.11,18.93-10.69,21.87-5.24l21.56,75.9,72.47,8.13a3,3,0,0,1,.67.05C1008.45,420.75,1016.08,441.6,1014.33,457.43Z" transform="translate(-670.68 -11.44)"/><path class="cls-7" d="M875.4,340.73c-.2-.65-1.85-13.31-1.85-13.31l-8.74-16.34-5.83-22v-7.62c.48-2.93,1.7-4.57,4.27-3.93l-.47-1.48c-1-5.59,2.57-7.67,6.3-4.4-.77-5.44,3.31-7.62,6.32-3.7l6.12,11-1.46-12.85-2.62-15.58c-.78-4.57,3-6.42,5-1.74l5,19c1.53-1.05,2.89.91,3.58,4.33,0,0,.79,6,1.74,9.76s3.69,8.34,4.47,13.4-1.79,22.45-1.79,22.45l1.8,17.75C896.1,340.43,878.19,345.33,875.4,340.73Z" transform="translate(-670.68 -11.44)"/></g></g></svg>