<svg xmlns="http://www.w3.org/2000/svg" viewBox="0 0 1197.88 1073.5"><defs><style>.cls-1{isolation:isolate;}.cls-2{fill:#739eba;}.cls-3{fill:#d4eeff;}.cls-11,.cls-4{fill:#ffb294;}.cls-5{fill:#227fbc;}.cls-11,.cls-5,.cls-8{opacity:0.5;mix-blend-mode:multiply;}.cls-6{fill:#0b151a;}.cls-7{fill:#1e3a47;}.cls-8{fill:#162b35;}.cls-9{fill:#eb3b58;}.cls-10{fill:#fff;}.cls-12{fill:#333;}.cls-13{fill:#33485b;}.cls-14{fill:#0da5bf;}.cls-15{fill:#39b54a;}</style></defs><g class="cls-1"><g id="Calque_1" data-name="Calque 1"><path class="cls-2" d="M1532.56,805.11l.11-38.52c0,.51-.08,1-.13,1.53.74-8.61-4.49-17.37-15.81-23.91l-86.3-49.82c-21.16-12.22-55.7-12.22-76.73,0L985.29,908.49c-10.48,6.09-15.7,14.11-15.69,22.15,0-.08-.18,63.49-.18,63.49,0,8.11,5.29,16.23,15.94,22.38l86.3,49.82c21.16,12.22,55.7,12.22,76.73,0L1444.91,894l159.85-3.71.18-63.58Z" transform="translate(-407.06 -2)"/><path class="cls-3" d="M1516.73,744.21c21.16,12.22,21.27,32.23.25,44.45l-13.41,7.79,101.37,30.27-159.84,3.71-296.53,172.33c-21,12.22-55.57,12.22-76.74,0l-86.29-49.82c-21.16-12.22-21.27-32.23-.25-44.45l368.41-214.1c21-12.22,55.57-12.22,76.73,0Z" transform="translate(-407.06 -2)"/><path class="cls-2" d="M954.34,634.13l-86.24-49.8c-21.22-12.24-55.71-12.22-76.74,0L423,798.43c-10.49,6.09-15.72,14.11-15.71,22.14,0-.07-.19,63.5-.19,63.5,0,8.11,5.3,16.22,16,22.38l86.25,49.79c21.16,12.22,55.71,12.22,76.73,0l13.41-7.79,52.64,58.65,5.83-92.63L954.41,742.15c10.44-6.07,15.67-14.07,15.7-22.07l.18-63.58c0,.5-.09,1-.13,1.5C970.88,649.4,965.65,640.65,954.34,634.13Z" transform="translate(-407.06 -2)"/><path class="cls-3" d="M954.34,634.13c21.16,12.21,21.28,32.22.25,44.44L658.06,850.9l-5.83,92.62-52.64-58.64-13.41,7.79c-21,12.22-55.57,12.22-76.73,0l-86.24-49.8c-21.22-12.24-21.28-32.22-.25-44.44l368.4-214.1c21-12.22,55.52-12.24,76.74,0Z" transform="translate(-407.06 -2)"/><path class="cls-4" d="M801.25,270l.86,17c-5.48,8.23-5.39,17.66-2.1,27.78l2.5,15.4-2.42,9.11c.6,6.14,3.65,6.7,7.63,5.13l-3.7,4.73-9.33,10.54L785.15,364c-4,2.78-3,4.25-.08,5.23-1.93,3.15-.49,4.91,2.57,6l8.37-4.67c-.38,4,1.7,7,5.41,4.23l14.94-13.07c5.92-7.85,10.57-16.11,13-25a116.83,116.83,0,0,0-6.17-43.33l1.33-21.11Z" transform="translate(-407.06 -2)"/><path class="cls-3" d="M770.86,124.4l34.35,185.44c9.8.92,26.14-2.14,32.24-17-11.72-61.83-19.93-133.21-21.75-186-2.67-26-25.56-57.66-51.6-52Z" transform="translate(-407.06 -2)"/><path class="cls-5" d="M826.35,305.46,808.07,208l-12.75-96.08-17.74,82.34,9.31,87.57,18.32,28A37,37,0,0,0,826.35,305.46Z" transform="translate(-407.06 -2)"/><path d="M663.35,641.89c-4.12,5.42-4.1,18-3.14,32.14,3.84,14.32,17.42,13.21,29,15,22.36,3.5,33.49,20.31,63.24,20.26,17.68,0,29.48-3.81,33.19-15,.54-5.16-2.47-10.4-8.74-15.72,0,0-40.52-18.17-41.57-18.86s-19.21-14-19.56-15.38-7-32.49-7-32.49H665.1Z" transform="translate(-407.06 -2)"/><path d="M642,709.66c-4,12.9-4.84,16.65-3.15,26.21,1.92,5.06,3.85,7.33,5.94,14.32,2.47,8.63,2.1,23.06,15,31.69C675,794,704.63,794.53,714,781.63c0-6.29-4.17-20.17-11.93-31.41l-15-28,1-26.18-43.18-9.48Z" transform="translate(-407.06 -2)"/><path class="cls-6" d="M714.22,308.05V483.18C700.14,534,673,581.63,668.69,632.37c0,21.37,43.3,26.06,54.25,12.32,4.29-39.28,37.51-92.6,57.67-154.64C794,427.48,805,362.59,801.3,310.33Z" transform="translate(-407.06 -2)"/><path class="cls-7" d="M800,314.81c1.24,17.84-23.16,64.76-51.07,85.92-1.23,38-6.16,104-12.59,146.92-20.18,62-38.55,121.48-42.83,160.75-7.27,9.15-29,12.72-42.64,7.65a15.31,15.31,0,0,1-2.72-1.16c-.26-.13-.59-.33-.91-.46-4.8-2.66-8-6.81-8-12.59.32-49.9,9.47-100.33,23.56-151.14l-4.22-225.45L658.5,319Z" transform="translate(-407.06 -2)"/><path class="cls-8" d="M688.67,555.5c-26.6,32.32-32.25,96.37-37.77,160.55-.51-.26-1.42-.64-2.72-1.16-.26-.13-.59-.33-.91-.46-4.8-2.66-8-6.81-8-12.59.32-49.9,9.47-100.33,23.56-151.14l-4.22-225.45,26.41,18C668.56,399.56,681.66,476.27,688.67,555.5Z" transform="translate(-407.06 -2)"/><path class="cls-3" d="M810.48,294.82a47.73,47.73,0,0,1-3.31,10.38,44.49,44.49,0,0,1-15.12,18.5c-26.86,18.95-64.44,26.47-95.2,22.64a227.17,227.17,0,0,1-23.36-6.68,36,36,0,0,1-6.56-3.11A41.14,41.14,0,0,1,647,298.32c0-.32.07-.58.07-.91.32-3.24.51-6.55.71-9.93s.26-6.81.32-10.25l-4.21-55.29-7.6-99.68a379.28,379.28,0,0,1,80.08-65.48l60.49,2.86C800.23,76.25,805.55,97,809.12,125c0,0-4.41,111.49-.52,138.68.65,4.35,1.36,9,2.14,13.89A49.51,49.51,0,0,1,810.48,294.82Z" transform="translate(-407.06 -2)"/><path class="cls-9" d="M744.22,110.43l-2,18.61,11.25,18c3.31,26.93,12.56,84.11,11.5,105l12.63,24.3,8.67-30c-5.19-32.93-18.3-84.85-24.12-106.44V116.87l-12.55-8.47Z" transform="translate(-407.06 -2)"/><path class="cls-10" d="M723.36,49.85,695.83,70.32c-14.77,40.6,18.27,58.55,39.43,82.12l14-35.43,31.64,7.26-9.79-58.79Z" transform="translate(-407.06 -2)"/><path class="cls-5" d="M810.15,295.72a34.71,34.71,0,0,1-3,9.48c-5.83,12.3-38.87,5.06-66.84-6.29-30.31,5.06-60.88-3.4-61.79,2.38-1.62,9.92,6,30.72,6.49,42-31.31-6.15-39.06-29.4-38-45,.33-3.5.65-7.14.78-10.84.19-3.37.32-6.74.32-10.25l-4.21-55.29,42.5-35s-6,11.36-12,33.68c-1,3.9,42.44,19.73,62.17,34.2,23.88,17.46,55.35,29.58,66.83,36.27C805.61,292.41,810.28,295.13,810.15,295.72Z" transform="translate(-407.06 -2)"/><path class="cls-4" d="M719.94,47.22,707.21,69.59c-10.19,27.17,22.12,49.79,42,46.5l20.09-36.22Z" transform="translate(-407.06 -2)"/><path class="cls-11" d="M722,75.08c-.7,13.3,1.24,25.75,6.58,37.12,14.87,27,27.07,7,33.23-1.71Z" transform="translate(-407.06 -2)"/><path class="cls-4" d="M721.09,68.81c2.07,18.45,7.63,36.05,27.92,48.94,6.16,4.3,13,3.38,17.48-.43L783,94.75a60.6,60.6,0,0,0,14-24L771.85,18.82H732.76L714.22,44.39Z" transform="translate(-407.06 -2)"/><path d="M711.28,64.34l15.5,3.29a13.3,13.3,0,0,1,16.81-1.26c8.17,5.73,21.73,12.9,37.35,11.78,18.75-1.33,27.61-15.7,26.57-29.57C806.4,33.74,781.32.12,752.37,2.08c-34.22,2.32-50.6,27.85-44.13,65.71Z" transform="translate(-407.06 -2)"/><path class="cls-4" d="M717.48,47.4a6.49,6.49,0,0,0-6.79,2.41,9.16,9.16,0,0,0-1.19,5.31,27.6,27.6,0,0,0,2.7,11.39,12.58,12.58,0,0,0,2.86,4,5.9,5.9,0,0,0,4.59,1.54c5.87-.84,4.79-8.33,5.33-12.48C725.63,54.69,722.6,48.6,717.48,47.4Z" transform="translate(-407.06 -2)"/><path class="cls-3" d="M636.31,122.27a603.63,603.63,0,0,0-38.26,95.37c-6.61,21.23,4.2,44.13,25,52,29.51,11.21,62.45,19.05,102.64,23.15,10.88-2.71,19.46-36.29,11.62-46.21l-73-19.61,18.24-35.33C707.1,151,662.85,96.31,636.31,122.27Z" transform="translate(-407.06 -2)"/><path class="cls-4" d="M730.44,280.84c-8.21-1.65-3.2-28.63,4.92-27.81l9.19,2.91a235,235,0,0,1,27.3-7.39l22.21,5.89,11.45,6,5.15,1.56c6.72,1,6,6.73-.29,8.17l-9.79-.56-13.39-5.08-5.87,2.77,22.47,17.17L825,283.05c7.49.08,7.44,5.58,2.37,7.15l-8.67,2.62-4.86,4.83-5.15,3.43L802,303.94c-10.07.18-19.87-2-28.72-4.57l-23-13.46Z" transform="translate(-407.06 -2)"/><polygon points="383.04 272.02 403.98 252.82 439.37 252.82 441.55 256.72 414.81 281.26 396.73 282.48 383.04 272.02"/><polygon class="cls-12" points="383.52 272.39 404.41 253.68 439.18 253.68 440.76 256.51 406.08 256.73 385.95 274.25 383.52 272.39"/><path d="M1253.87,765.07c-22.91,4.77-26.6,22.62-17.86,38.12l25.81,36.53c9.68,16.84,22.69,24.74,39.7,21.89,15.29-6.3,17.36-16.37,13.11-28.24l-6.35-19.45-9.93-52.82Z" transform="translate(-407.06 -2)"/><path class="cls-6" d="M1319.84,812.17c-7.14,24.31-54.08,23.45-57.18-9l-12.79-92.94c0-.07-2.69-19.63-2.69-19.63l-26-107.64-5.62-23.4,13-65.67,96.15-4.42s-8.12,162.08-8.19,169.84C1330,701.79,1322.92,756.61,1319.84,812.17Z" transform="translate(-407.06 -2)"/><path d="M1253.36,849.38c9.29,15.65,5,41.76-.45,53.6-16.18,6.08-29.73,7.29-39.15.84-30.59-1.83-47.7,2.26-63.43-2.21-16.74-4.76-28.15-9.8-36.71-26.51-3.31-7.46,1.23-21.46,14.86-23.52,25.42-1,48.23-3.12,60.67-9.35l21.7-39.66,39.4,31.06Z" transform="translate(-407.06 -2)"/><path class="cls-7" d="M1268.37,862.16c-16.49,26.22-73.46,16.68-77.75-7.79l-10.71-81.83c0-.26-4.28-33.1-4.28-33.1l-11.16-52.69c-8-60.68-6.69-111.43-3.31-161.27l100.72-47.24c-2,14.08-4,28-5.78,41.72-1.62,11.94-3.18,23.76-4.54,35.24q-.58,5.16-1.17,10.13c-2.4,20.57-4.35,40.23-5.58,58.34-1.36,20.5,2.4,38.48,3.18,54.31C1269,742.49,1269.79,801.42,1268.37,862.16Z" transform="translate(-407.06 -2)"/><path class="cls-8" d="M1261.88,478.24c-2,14.08-4,28-5.78,41.72-1.62,11.94-3.18,23.76-4.54,35.24q-.58,5.16-1.17,10.13l-61.52,47.5s-9.34,150.43-9,159.45l-4.28-32.84-11.16-52.69c-8-60.68-6.69-111.43-3.31-161.27Z" transform="translate(-407.06 -2)"/><path class="cls-13" d="M1382,260.11l-4.41,41.27c-2,11.54-8.19,18.75-16.37,23.23-13.92,7.69-33.58,7.48-47.85,7.83-4.13.07-7.77.28-10.71.63l-4.33-47,44.91-94.86C1369.86,198.4,1381.55,222.82,1382,260.11Z" transform="translate(-407.06 -2)"/><path class="cls-8" d="M1361.19,324.61c-13.92,7.69-33.58,7.48-47.85,7.83V305.86l46.87-43.72Z" transform="translate(-407.06 -2)"/><path class="cls-4" d="M1099.39,330.78c-.44-.65-13.32-17.71-13.32-17.71l-16.85-45V240.22l30.17,4.21,8,27.11,1.36,15.52,1.41,8.74L1126,315.91Z" transform="translate(-407.06 -2)"/><path d="M1126.13,269l-26,15.15a5.23,5.23,0,0,1-7.2-1.93l-33.8-59.85a5.21,5.21,0,0,1,1.89-7.06l26-15.15a5.22,5.22,0,0,1,7.19,1.93L1128,261.9A5.2,5.2,0,0,1,1126.13,269Z" transform="translate(-407.06 -2)"/><path class="cls-12" d="M1126.81,266.72l-26,15.14a5.21,5.21,0,0,1-7.2-1.93l-33.8-59.85a5.21,5.21,0,0,1,1.89-7.06l26-15.14a5.21,5.21,0,0,1,7.19,1.92l33.81,59.86A5.23,5.23,0,0,1,1126.81,266.72Z" transform="translate(-407.06 -2)"/><path class="cls-14" d="M1098.14,279.34a2,2,0,0,1-1.72-1l-33.81-59.86a2,2,0,0,1,.72-2.66l26-15.14a2,2,0,0,1,2.74.72l33.8,59.86a2,2,0,0,1-.71,2.66l-26,15.14A1.93,1.93,0,0,1,1098.14,279.34Z" transform="translate(-407.06 -2)"/><path class="cls-10" d="M1092.4,212l-.53.32,1.76,2.61-3.44-1.62-12.67,7.49a1.45,1.45,0,0,1-2-.51l-1.92-3.24a1.46,1.46,0,0,1,.51-2l14.88-8.8a1.45,1.45,0,0,1,2,.51l1.92,3.24A1.45,1.45,0,0,1,1092.4,212Z" transform="translate(-407.06 -2)"/><path class="cls-15" d="M1078.09,234.59l.53-.32,1.45,2.8.23-3.79,12.67-7.49a1.46,1.46,0,0,0,.51-2l-1.92-3.24a1.45,1.45,0,0,0-2-.51l-14.88,8.81a1.45,1.45,0,0,0-.51,2l1.92,3.24A1.45,1.45,0,0,0,1078.09,234.59Z" transform="translate(-407.06 -2)"/><path class="cls-10" d="M1105.43,233.44l-.53.31,1.76,2.62-3.44-1.62-12.67,7.49a1.45,1.45,0,0,1-2-.51l-1.92-3.24a1.45,1.45,0,0,1,.51-2l14.88-8.8a1.45,1.45,0,0,1,2,.51l1.92,3.24A1.45,1.45,0,0,1,1105.43,233.44Z" transform="translate(-407.06 -2)"/><path class="cls-15" d="M1091.12,256l.53-.32,1.45,2.8.23-3.79,12.67-7.5a1.45,1.45,0,0,0,.51-2l-1.92-3.24a1.45,1.45,0,0,0-2-.51l-14.88,8.8a1.46,1.46,0,0,0-.51,2l1.92,3.23A1.46,1.46,0,0,0,1091.12,256Z" transform="translate(-407.06 -2)"/><path class="cls-4" d="M1083.68,272.19c.62-.33,4.34-14,4.34-14l-3-18c-.22-5.63,5.25-6.61,7.65-1.26l11.94,23.22,3.54,18.1-2.14,10.28-16.62,7.32Z" transform="translate(-407.06 -2)"/><path class="cls-4" d="M1220.46,244.62,1197.33,247l-32.78-13.64-23.16-1.86-13.92,2.36a5.81,5.81,0,0,0-2.79,1.28l-2.43,2-3.45,1a5.88,5.88,0,0,0-4.17,5l-3.23,3c-1.36,1.92.36,5,2.69,4.7l4.71-1.4,8.89,0,15.07,3.28,11,11.51s-.73,3.4-1.28,3.74c-4.81,2.91-14.07,4.9-14.07,4.9l-4.91.56c-3.93,2.36-5.29,6.34-.74,7.08l7,.83,26.71-.51,25.52-7.55,28-.67Z" transform="translate(-407.06 -2)"/><path class="cls-13" d="M1338.1,378.89c-.49,38.69,6.93,89.9,6.93,89.9-4.62,34.35-67.09,62.82-124.25,65.62A182.6,182.6,0,0,1,1196,534c-17.63-1.68-33.72-6.43-46.1-14.83a25.32,25.32,0,0,1-2.24-1.54,29.67,29.67,0,0,1-10.71-32.46c7.77-25.53,22.53-78,23.65-113,.14-3.36.14-6.51,0-9.52-2.1-41.2-3.43-69,5.67-90.94a67.57,67.57,0,0,1,14.34-21.62s43.79-35.33,65.13-54.63c42.32-15.67,67.65-11,97.52-4.27,0,0,20.36,7.34,17.77,63.1C1359.58,283.82,1338.52,340.28,1338.1,378.89Z" transform="translate(-407.06 -2)"/><path class="cls-4" d="M1209.14,85.21c-25.51,2.38-31.77,12.47-29.86,35.27-6,12.54,10.17,40.94,18.26,58.3,2.34,5,6.41,12.37,17.31,11.24,3.81.65,5.36,4.16,6.59,7.82,2.32,6.86,1.58,15,1.58,15,30-2.31,55-9.11,64.16-30.4l-13.56-11.21-22.16-86Z" transform="translate(-407.06 -2)"/><path d="M1178,129.81c4.11.23,9.76-2.59,16.68,10.82,2.66,5.16,5.36,11,5.36,11l14.42,2.63,8.13,18.28c2.57,5.8,11.88,15.42,18.22,15.49,10.71.12,27.82-7.48,33.54-14.92,0,0,5.25-37.69,0-55.29s-9.14-31.56-25.78-39.35-45.1-2.13-58.17,6.7C1162.85,105,1170.14,124.85,1178,129.81Z" transform="translate(-407.06 -2)"/><path class="cls-4" d="M1205.07,156.85a23.27,23.27,0,0,1-1.79-7.8c-.11-2.3.26-4.9,2.09-6.3a5.53,5.53,0,0,1,6.14.08,12.2,12.2,0,0,1,4.07,5,25.78,25.78,0,0,1,2.49,17.48c-.41,1.72-1.33,3.64-3.07,3.9s-3.16-1.25-4.2-2.64a78,78,0,0,1-7.29-11.91Z" transform="translate(-407.06 -2)"/><path class="cls-10" d="M1206.94,227.31l14.41-19.82c30.33-2,60.54-15.76,66.68-27.67l16,7.4-33.68,29.32Z" transform="translate(-407.06 -2)"/><path class="cls-7" d="M1189.86,243s58.77-1.66,100.75-25.58c21.27-12.12,22.65-25.17,22.65-25.17,1.23-5.82-9.26-11.1-19-9.5-6.45,23.35-58.53,33-81.07,36Z" transform="translate(-407.06 -2)"/><path class="cls-8" d="M1224.21,313.06,1206,458,1196,534c-17.63-1.68-33.72-6.43-46.1-14.83a25.32,25.32,0,0,1-2.24-1.54,29.67,29.67,0,0,1-10.71-32.46c7.77-25.53,22.53-78,23.65-113Z" transform="translate(-407.06 -2)"/><path class="cls-13" d="M1146.61,320.29l-21-20.76c-20.77-14.88-47,6.11-41.1,34.31l48.1,60.34c6.22,9.09,17.27,14.56,26.67,15.74,31.3-2.09,47.83-49,65.06-93.79,8.83-47.22-27.68-77.82-54.29-52.15Z" transform="translate(-407.06 -2)"/></g></g></svg>