<svg xmlns="http://www.w3.org/2000/svg" viewBox="0 0 767.99 1080"><defs><style>.cls-1{isolation:isolate;}.cls-11,.cls-2{fill:#ffb294;}.cls-3{fill:#1e3a47;}.cls-4{fill:#172935;}.cls-5{fill:#ba353a;}.cls-6{fill:#e54349;}.cls-7{fill:#fff;}.cls-13,.cls-8{fill:#227fbc;}.cls-8{opacity:0.3;}.cls-11,.cls-13,.cls-18,.cls-23,.cls-29,.cls-8{mix-blend-mode:multiply;}.cls-9{fill:#25435c;}.cls-10{fill:#3b5770;}.cls-11,.cls-13{opacity:0.5;}.cls-12{fill:#722811;}.cls-14{fill:#2c2921;}.cls-15{fill:#524b45;}.cls-16{fill:#305b8f;}.cls-17{fill:#4078bd;}.cls-18{fill:#dedcdb;}.cls-19{fill:#34629b;}.cls-20{fill:#fafafa;}.cls-21,.cls-29{fill:#dedede;}.cls-22{fill:#fcc7aa;}.cls-23{fill:#fad3be;}.cls-24{fill:#7a3f0d;}.cls-25{fill:#cc8d39;}.cls-26{fill:#a86828;}.cls-27{fill:#4a2727;}.cls-28{fill:#ffd6bf;}</style></defs><g class="cls-1"><g id="Calque_1" data-name="Calque 1"><path class="cls-2" d="M997.68,916.67C1018.4,910.83,1036,901,1045,887.4c15.78.47,31.51-2.24,48-8.14,12.15,15.38,18.39,30.36,6.5,44.72l-35.71-.16L1028.39,946l-38.33-.67C985.52,933.08,982.62,921.46,997.68,916.67Z" transform="translate(-568.01)"/><path class="cls-3" d="M1096.56,884.19c18,12.66,19,34.43,13.4,51.49-11.73,16.72-37.06,5.6-54.34,10.32-39.76,10.83-39.82,20-58.9,19.6-30.84-.68-51.15-13.8-49.49-23.93,1.37-8.31,14.69-16.64,36.38-24.75l35-8.51c-5.41,3.12-12.81,5.78-21,8.26-11,7.18-7.14,14.79,3.13,24,11.47,5,25.8.11,44.15-9.5l39.52-18.81C1095,905.72,1100,896.72,1096.56,884.19Z" transform="translate(-568.01)"/><path class="cls-2" d="M1239.56,910.24c5.59,9.89,5.25,24.15,4,39.71,0,0-26,40-26.55,42s-36.11,10.68-36.11,10.68L1169.73,975c14.65-13.88,18.08-29.76,23.47-51.73,16.75-1,33.54-8.67,45.85-19.48C1239.16,905.91,1239.33,908.06,1239.56,910.24Z" transform="translate(-568.01)"/><path class="cls-3" d="M1239.56,910.24c12.47,10.16,11.94,30.7,9.29,46-5.84,12.35-14.24,19.92-23.9,38.05l-9.09,11.91c-18.16,15.17-50.64,17.12-62.06,9.12-7.43-13,1.45-25.85,23.75-48.6-8.5,17.41,1.21,25.9,23.26,23.56,10.48-2,17.51-16,28.92-35C1240.2,935.31,1247.21,923.58,1239.56,910.24Z" transform="translate(-568.01)"/><path class="cls-2" d="M1077.55,386.29l6.53,23.52,15.32,10,14.86,17.41c5.14,5.51.93,9.67-4.17,6.57l-15.75-9.63-7.92,7.77L1085,478.61a11.69,11.69,0,0,1-3.76,8.15l-1.91,1.75-.61,13.61c.19,7.3-5.73,6.38-7.72-1.13l-4.65-24.38-4-5.07a9.88,9.88,0,0,1-2.08-5.53l-2-36.72,2-14.55,2.84-28.24Z" transform="translate(-568.01)"/><path class="cls-4" d="M1133.89,140.59c-42.77-7.32-47.09,64.17-66.4,129.36-9.51,44-1.21,89.72-6.36,137l22.95,2.83c-.06-41.89,14.4-79.56,18.54-112.41l37.47-103.1Z" transform="translate(-568.01)"/><path class="cls-5" d="M1030.06,886.23c16.41-24.88,10.49-192.15,7.09-221,13.53-75.13,46.59-162.56,73.59-256.19l86.17,71.62c-1,41.52-45.93,115.81-86.17,196.87,28.76,72.5-11.12,174-4.9,209.94C1091.1,903.77,1043.91,899.25,1030.06,886.23Z" transform="translate(-568.01)"/><path class="cls-6" d="M1108.5,437.08c-24.07-19.36,141.66-70.17,164.4-1.44,18.11,52.48,11.69,96.53-5.72,126.82-5.52,51.94-11.86,81.1-11.94,134.41,28.15,96-8.27,148.75-4.85,213.37-13.75,31.69-61.68,35.08-72.22,19.84,11-45.89,21.74-161.23-1.58-225.94-13.84-43.67-16.42-101.93-15.7-155.87C1127.87,513.44,1107.52,464.34,1108.5,437.08Z" transform="translate(-568.01)"/><path class="cls-7" d="M1097.84,335.07a29,29,0,0,0,4.8,2L1093,441.18c15.63,95.35,166.71,69.73,194.8,12.31-6-27.17-37.54-62.77-28.48-90.09a11.67,11.67,0,0,1,.54-1.7c15.17-37.93,25.31-68.34,25.31-68.34,3.41-9.75,6.42-18.58,8.75-26.7,8.43-29.49,6.81-41-.16-50.54-44.73-47.37-112.69-77.4-163.84-75.07-19.2,5.41-22.29,33.51-24.23,67.41-1.62,28.48-29.56,61.29-31.42,81C1071.6,318.28,1089.09,330.74,1097.84,335.07Z" transform="translate(-568.01)"/><path class="cls-8" d="M1093,441.18c15.63,95.35,166.71,69.73,194.8,12.31-6-27.17-37.54-62.77-28.48-90.09a11.67,11.67,0,0,1,.54-1.7c15.17-37.93,25.31-68.34,25.31-68.34,3.41-9.75,6.42-18.58,8.75-26.7-2.48-14.32-5.58-26.7-8.75-23.45C1227.78,302.8,1223,375.55,1165,368.43c-32.2-3.95-38.16-41.25-38.16-41.25-6.89,6-19,8.82-29,7.89a29,29,0,0,0,4.8,2Z" transform="translate(-568.01)"/><path class="cls-9" d="M1202.55,155a239.5,239.5,0,0,1,28.33,13.31C1229.79,159.16,1221.59,154.9,1202.55,155Z" transform="translate(-568.01)"/><path class="cls-10" d="M1144.35,518.89c51.55,19.81,124.14-25.85,143.49-65.4-6-27.17-37.54-62.77-28.48-90.09a11.67,11.67,0,0,1,.54-1.7c15.17-37.93,25.31-68.34,25.31-68.34,3.41-9.75,6.42-18.58,8.75-26.7,8.43-29.49,6.81-41-.16-50.54a251.86,251.86,0,0,0-62.92-47.83c3.17,25-47,86.91-72.52,198.75C1148.61,410.07,1142.42,460.38,1144.35,518.89Z" transform="translate(-568.01)"/><path class="cls-10" d="M1092,334.15l-18,99.6c4.87,29.64,8.74,63.47,32,72.37,4.1-54.72.46-113.85,5.8-172,5.89-65,23.07-128.94,74.92-184.67-25.15-9.91-34.75-9.44-56.88-8.43-19.2,5.41-22.29,33.51-24.23,67.41-1.62,28.48-29.56,61.29-31.42,81C1070.75,327.64,1092,334.15,1092,334.15Z" transform="translate(-568.01)"/><path class="cls-2" d="M1249.09,103.45l-1.59,60-19.13,30.8c-26.79,42.58-71.28,45.46-57.12-13.9l3.07-16.56,7.65-31.62Z" transform="translate(-568.01)"/><path class="cls-11" d="M1235.15,132.82c.23.68-8.88,63.74-43.13,61.91-21.45-1.15-17.39-48.49-17.39-48.49Z" transform="translate(-568.01)"/><path class="cls-2" d="M1174.91,169.38c15.62,7,38.33-9.58,48.65-18.25a28.87,28.87,0,0,0,8-10.93l8.4-20,13.19,1s22.94-12.33,19.34-57.53c-1.79-22.6-30.52-45.26-54.44-45.38-37.68-.18-51.47,22.93-61.48,38.36s-4.28,47.08-4.28,47.08S1153.94,160,1174.91,169.38Z" transform="translate(-568.01)"/><path class="cls-12" d="M1228.63,145.55s-44.26-29.08-54.31-86.16c0,0-17.85-4.71-23,37.37-20.19-34.46-10-69.07,32.45-81.54,49.77-14.61,99,9.13,96.8,63-2.39,59.49-30.74,92.36-44.79,104.31C1235.83,182.54,1240.26,154.68,1228.63,145.55Z" transform="translate(-568.01)"/><path class="cls-13" d="M1158.36,367c-9.75,43-15.94,93.34-14,151.85,51.55,19.81,124.14-25.85,143.49-65.4-6-27.17-37.54-62.77-28.48-90.09a11.67,11.67,0,0,1,.54-1.7c15.17-37.93,25.31-68.34,25.31-68.34,3.41-9.75,6.42-18.58,8.75-26.7-2.48-14.32-5.58-26.7-8.75-23.45C1227.78,302.8,1223,375.55,1165,368.43A42.1,42.1,0,0,1,1158.36,367Z" transform="translate(-568.01)"/><path class="cls-13" d="M1074.08,433.75c4.87,29.64,8.74,63.47,32,72.37,4.1-54.72.46-113.85,5.8-172-6.81,1.54-14.16,1.62-19.89,0Z" transform="translate(-568.01)"/><path class="cls-2" d="M1317.76,497.78,1316.44,516l1.37,43.08-6.13,26.82-10.94,24.48c-1.65,4.73-6.2,5.86-6.3,2.47L1290,623.35c-3.2,7.59-7.8,5.57-6.36-1.78l8.73-37.5-13.16,37.15c-2.57,7-7.88,4.93-6-2.45l9.14-42.39-13,30.34c-3.5,7.95-8.56,7.11-6.83-1.85l12.76-55.43-14.42,15.25-8.56,7.09c-5.78,4.42-9.52-1.18-4.12-7.16l6.21-8.13,7.33-16.78,29.41-27,9.36-24.61Z" transform="translate(-568.01)"/><path class="cls-10" d="M1321.35,523.67c10.22-52.12,14.16-106.76,14.65-144.12-5.54-63-24.27-122.94-40.33-157.85-26.2-18.41-49.06,32.55-37.07,62.48l32,99,.52,129.55C1300,523.79,1310.11,527.31,1321.35,523.67Z" transform="translate(-568.01)"/><path class="cls-14" d="M575.78,984.11a3.67,3.67,0,0,0-4.29,3c-.82,3.67.08,12.91.08,12.91a52.25,52.25,0,0,0,20.74,10c12,2.55,32.26-7.62,38.17-12.45s19-14.41,28.73-18.51,23.08-7.64,30.52-12.84,5.58-24.71-1.62-27-53.68,9.42-54.16,10-10,8.87-10.11,9.39S575.78,984.11,575.78,984.11Z" transform="translate(-568.01)"/><path class="cls-14" d="M786.8,988.5s6.16,1.18,9.26,6,4.43,18.33,4.62,21.59.22,18.06-10.63,26.64-19.39,12.52-45,19.22-24.1,11.61-47.88,17-33.22-11.27-34.1-14.49-1.64-12.3,2.07-16.83,38.08-11.28,38.08-11.28Z" transform="translate(-568.01)"/><path class="cls-15" d="M577.63,957.48s-5.82,9.13-5.55,13.68-.64,15.28,1,17.41,10.47,10.91,27.28,9.73,38.22-18.82,43.43-21.54,37.32-18.6,45.7-22.54,19.4-12.36,18.89-20.94S691.71,916,677.47,916.89s-50.62,14.4-50.62,14.4Z" transform="translate(-568.01)"/><path class="cls-16" d="M616.56,969.43c1.79-.39,3.5-.82,5.13-1.25,35.49-9.48,33.8-28,33.95-30.69s12-159.1,13-167.45c.77-6.8,6-75.93,8.64-105.37.56-6.62,1-11.22,1.22-12.67,1.23-8,2.28-111.35-20.26-131S598.59,509,598.59,509s-13.08,34.56-18.1,82.72,13.3,123.86,1.84,180-7.26,183-7.26,183S575.77,978.43,616.56,969.43Z" transform="translate(-568.01)"/><path class="cls-17" d="M580.25,566.83,603,582.32l-4.09,55.83-12.3,19.37s-5-18.78-6.22-34.55S570.93,586.48,580.25,566.83Z" transform="translate(-568.01)"/><path class="cls-18" d="M621.69,968.18c35.49-9.48,33.8-28,33.95-30.69s12-159.1,13-167.45c.77-6.8,6-75.93,8.64-105.37-17.71-6.3-32-10.32-32-10.32L628.15,662s4.39,28.22,8.55,34.2,14.92,19,11.67,51.29S633.79,843.4,633.83,855.1C633.82,863.15,625.74,923.72,621.69,968.18Z" transform="translate(-568.01)"/><path class="cls-15" d="M670.4,1028.71s-4.1,9.13-4.84,14a62.88,62.88,0,0,0-.36,11.08s3.3,12,22.76,15,32.47-9.86,66.64-20,38-23.46,40.81-31.54,1.2-20.22-3.08-25.65-9.49-11.83-23.66-9.77-20.94,9.69-42.53,17.19S670.11,1022.64,670.4,1028.71Z" transform="translate(-568.01)"/><path class="cls-19" d="M658.93,699.32c4,3.89,18.19,137,12.5,162.48s-5.45,161.85-5.26,164.93,4.2,18.7,41.74,13c.44-.06.88-.14,1.31-.22,36.13-5.88,32-24.21,31.74-29s22.45-153.9,23.49-159.47S801.85,699.7,805.52,652s-2.44-92.48-2.44-92.48-5.28-1.67-13.84-4.32c-35.26-10.94-126.44-38.87-136.09-38-12,1.08-32.8,90.13-29.25,126.42S654.89,695.43,658.93,699.32Z" transform="translate(-568.01)"/><path class="cls-17" d="M645.78,601.15s47.88,10.42,53.28,11.65,37.18,8.82,37.18,8.82l-11.13,52-48,19.18L645.8,658.65Z" transform="translate(-568.01)"/><path class="cls-18" d="M741,1010.54c-.29-4.81,22.45-153.9,23.49-159.47S801.85,699.7,805.52,652s-2.44-92.48-2.44-92.48-5.28-1.67-13.84-4.32c.53,11.62,2.41,57.13.42,90.53-2.29,38.57-26.72,136.46-31.56,162.92S747.89,875.81,738.42,909c-8.7,30.36-24.46,96.49-29.2,130.52C745.35,1033.61,741.24,1015.28,741,1010.54Z" transform="translate(-568.01)"/><path class="cls-20" d="M805.76,217.57A21.72,21.72,0,0,1,820,225c5.93,7,8,23.16,6.62,29.9s-38,36.26-50.15,48-51.11-33-51.37-37.33,14.74-14.4,14.74-14.4S794.92,228.1,805.76,217.57Z" transform="translate(-568.01)"/><path class="cls-21" d="M569.2,288.7c2.35,27.74,28.44,146.73,29.22,159.74s-12.31,70.33-9.24,81.5,23.21,19.6,41.24,33,67.92,30,83.12,30.83S782,575.54,782,575.54l3-1,21.62-7s-6.57-46.11-4.87-58.28-1.61-95.61,4.66-117c2.77-9.42,3.3-31.71,2.83-54.77-.58-29.44-2.81-60.11-4.09-66.89-2.27-12.07-66.51-49.57-87.07-59.36s-93.88-15-103.25-16.51-25.63,9.09-25.63,9.09C565.65,223.48,566.85,261,569.2,288.7Z" transform="translate(-568.01)"/><path class="cls-22" d="M821.41,250.84l1.19-.78c2.41-1.61,7.95-5.3,11.21-7.87,4.29-3.37,11.18-8.77,13.88-15.65,1.46-3.78,4.24-8.85,6.4-13.69l0-.06c1.74-4,3.09-7.79,2.92-10.56-.37-6.21-9.91-10.43-11.16-17.07s.15-9,3.88-15.75-4.88-6.4-4.88-6.4a92.22,92.22,0,0,0-15,16.38c-7.8,10.64-8.91,18.28-12,26.38s-13.1,16.79-13.1,16.79C792.35,248.62,821.41,250.84,821.41,250.84Z" transform="translate(-568.01)"/><path class="cls-23" d="M822.6,250.06c2.41-1.61,7.95-5.3,11.21-7.87,4.29-3.37,11.18-8.77,13.88-15.65,1.46-3.78,4.24-8.85,6.4-13.69l0-.06c6.73-8.56,16-28.07,17.75-30.57s3-4.15,3.22-6.59a24.24,24.24,0,0,0-.16-4.5c-4.28-2-8.27-3.67-10.55-4.5-5.26-1.91-14.62,2.78-14.62,2.78l-8.93,12.38-1.45,2a5.36,5.36,0,0,1,1.07,2.77,2,2,0,0,1,0,.25c-.13,1.55,8.15,22.46,8.15,22.46s-.48,1.22-1.33,3c-2,4.12-5.89,11.24-10,12.84-5.89,2.28-15.81,8.19-15.81,8.19C821.84,240.07,822.19,245.59,822.6,250.06Z" transform="translate(-568.01)"/><path class="cls-23" d="M840.19,196.52c.27.78,3.22,11,7.09,15.74,2.08,2.61,4.45,3.59,6.81.59l0-.06c6.73-8.56,16-28.07,17.75-30.57s3-4.15,3.22-6.59a24.24,24.24,0,0,0-.16-4.5c0-.22,0-.45,0-.64.13-1.22.48-.88,3.14-5.17s-.52-8.59-.52-8.59-12.19-2.55-19.68-1.22-13,7.5-13,7.5c-2,2.66-3.33,11.05-4,18.78-.15,1.67-.27,3.27-.38,4.79a2,2,0,0,1,0,.25A75.83,75.83,0,0,0,840.19,196.52Z" transform="translate(-568.01)"/><polygon class="cls-24" points="364.24 178.97 364.24 278.66 469.39 217.67 469.39 117.98 460.96 120.86 438.82 107.99 364.24 178.97"/><polygon class="cls-25" points="469.39 117.95 364.26 179 271.01 124.72 376.14 63.74 469.39 117.95"/><polygon class="cls-26" points="291.63 112.76 386.34 166.18 445.44 131.85 445.44 104.03 376.14 63.74 291.63 112.76"/><polygon class="cls-26" points="364.24 178.97 364.24 278.66 271.01 224.41 271.01 124.72 364.24 178.97"/><path class="cls-22" d="M710.25,191.56s0-11.53,2.2-17.86,19.68-7.75,21.3-12.23,5.84-14.71,5.94-33.14,2.55-23.4,2.55-23.4S738,92.09,738.37,86.22s1.24-8-.43-12.89-2.46-41-16-48.63-89.17-2.4-95.84,4S614,105.56,619,114.56s11.28,33.07,11.62,38.73-.49,29.13-.32,32.05,19.55,7.26,34.89,7.55S710.25,191.56,710.25,191.56Z" transform="translate(-568.01)"/><path class="cls-20" d="M622.79,171.67s-4.36,7.67-5.38,10.83,0,17.9,0,17.9a66.25,66.25,0,0,0,22.35,5.2c12.09.48,32.81-2.48,46,.17s42.61,10.72,42.61,10.72-.65-7.73-.72-12-11.13-19.3-11.13-19.3l-5.73-3.56s-22.76-3.52-42.32-2.34-38.18.51-38.18.51l.18-8.56A50.86,50.86,0,0,0,622.79,171.67Z" transform="translate(-568.01)"/><path class="cls-27" d="M678,130.88s-8.06,12.42-8.93,12.47-17.59-2.84-25.82,1.55-13.32,3.6-13.32,3.6S615,125.25,606.18,101.44s-9.89-46.24-3.72-62S634.84,9,634.84,9,652.39-1.89,673.5.29,713.2,14,720.94,16.73s7.33,14.82,7.33,14.82-5.82-1.14-6.45,3.72,6.16,18.46,6.6,25.78-1.7,21.45-1.7,21.45-1.74,28.34-1.7,29-5,1.44-5,1.44,5-28.07-9.33-25.38-23.32,9.28-25.48,19.25S678,130.88,678,130.88Z" transform="translate(-568.01)"/><path class="cls-28" d="M703.37,97c-.34,0-6,7.47-5.64,15s2.61,18.67,3.55,20.91,2.51,3.63,5.14,3.48,5.21-5,5.35-6.52-2.33-12.15-.91-15.22,4-14.82,4.63-18.41-1.08-4.76-4.93-3.84S703.37,97,703.37,97Z" transform="translate(-568.01)"/><path class="cls-29" d="M722.62,339.64s22.54,23.44,32.67,31.57,29.73,18.88,29.43,30.38-5.66,67.37-4.12,85.19c.93,11,2.92,54.2,4.46,87.78l21.62-7s-6.57-46.11-4.87-58.28-1.61-95.61,4.66-117c2.77-9.42,3.3-31.71,2.83-54.77-26.25-11.87-53.45-23.44-54.53-23.62C752.74,313.51,716.17,308.34,722.62,339.64Z" transform="translate(-568.01)"/><path class="cls-29" d="M612.74,458.27s16,.42,40.32-.12S702.68,451,702.68,451l13.07-4.12.45,7.56-5.54,7.1,14.09-10,24.7-32.25s7,1.79,4.49,5.89-4.36,11.55-4.36,11.55,24.86-6.54,18.73-1.58-42.35,36.52-47.59,41-44.06,20.55-44.06,20.55l29.27-28.38s-20.7-2-22.07-1.89-42.18,3-55.3,1.48S612.74,458.27,612.74,458.27Z" transform="translate(-568.01)"/><path class="cls-29" d="M598.61,415.5s17.22,11.37,22.5,15.18,42.93,14,42.93,14-24.48,2.84-34.63,2.07-24-21.51-24-21.51Z" transform="translate(-568.01)"/><path class="cls-29" d="M608.79,482.39s23.78,26.52,27.33,27.52,32.61,13,32.61,13l71.28-.14-34.62,7.21,52.53,0,17.5,6.3-45,2.69-45.75,2.75L690,530.32l-31.22,0-40.95-16.6-5.16-9.56-12.5-9.36,9.24-2.39L602,472.69Z" transform="translate(-568.01)"/><path class="cls-22" d="M831.61,199.61s4.06-4,8.18-4.28,10.85.63,13.59.17,10.7-2.83,13.81-5.43,8.15-2,10,1-4.29,8.86-8.62,11.36-7.25,5.43-11.2,5.67-10.24,4.4-10.24,4.4-.31,9.14-7.47,13.19-15.54,5.06-18.15-1.15S822.19,209.13,831.61,199.61Z" transform="translate(-568.01)"/><path class="cls-22" d="M957.63,251.08c-.83,3.13-5.32,20.15-5.32,20.15l3.25,22.59,9,15.77s7.85-12.87,13.44-17.12a76,76,0,0,0,5.85-5.31c8.12-8,20.39-21.5,22.76-25.74,3.14-5.51,14.15-13.91,20.86-19.66.44-.38.86-.77,1.25-1.15a15.9,15.9,0,0,0,3.65-5.23,8.17,8.17,0,0,0,.67-4.48l0,0c.7-.73,12-12.45,11.61-15.29s-3.68-4.08-3.68-4.08l-1.24-3.2s-.08-1.21-.15-2.39-1.72-5.77-5-6.07-10.3,8.69-11.91,10.86-8.37,6.53-13.75,8.59-13.37,6.81-18.3,8.15-13.89.83-13.89.83a122.54,122.54,0,0,0-9.94-16.45c-5.24-6.93-10.84-5.72-10.84-5.72s-7.49,1.47-7.36,3.7,3.21,4.82,4.54,6.8,4.36,9.72,5.43,12.93a20.21,20.21,0,0,1,.46,7.55S958.49,248,957.63,251.08Z" transform="translate(-568.01)"/><path class="cls-23" d="M1031.52,222.73l8.26-14.43s-.08-1.21-.15-2.39l-11.16,15.52-17.35,13.46,9.62-4.49Z" transform="translate(-568.01)"/><path class="cls-23" d="M1025.58,238.49l6-4.83.79,1.72a8.17,8.17,0,0,0,.67-4.48l-15.15,9.65-6.67,3.73Z" transform="translate(-568.01)"/><path class="cls-23" d="M983.87,287.16c8.12-8,20.39-21.5,22.76-25.74,3.14-5.51,14.15-13.91,20.86-19.66.44-.38.86-.77,1.25-1.15,0,0-8.44,5.41-11.46,7s-15.72,17.14-16.34,18.34-14.07,15.64-16.48,16.36C983.32,282.62,982.93,284.82,983.87,287.16Z" transform="translate(-568.01)"/><path class="cls-20" d="M722.62,339.64c6.34,6.06,38.76,26.16,38.76,26.16,38.76,26.13,109,40.88,132.65,39.46s48.05-37.68,57.68-43.41S988.51,298,988.51,298a77,77,0,0,0-3.85-10c-3-6.46-7.8-14.3-14.35-17.82-12.09-6.49-21.74-1.12-21.74-1.12s-18.36,21.43-23.5,27.58S889,326.68,889,326.68s-5.42,1.49-14.45-3.48-62.45-46.31-63.91-47.6a101,101,0,0,0-43.32-25.42c-18.1-5.14-35.18,35.28-42.25,63.58C721.73,327.07,720.6,337.69,722.62,339.64Z" transform="translate(-568.01)"/><path class="cls-29" d="M722.62,339.64c6.34,6.06,38.76,26.16,38.76,26.16,38.76,26.13,109,40.88,132.65,39.46s48.05-37.68,57.68-43.41S988.51,298,988.51,298a77,77,0,0,0-3.85-10c-10.13,15.21-19.51,38.44-20.79,41.47-1.5,3.51-7.27,4.57-10.27,6.46s-9.15,14.32-15.78,24-31.78,32.87-51,34.38S826.63,378,815.47,375.53s-64.26-26.45-69.8-32.34-19.62-28.69-19.62-28.69c-.35-.25-.67-.51-1-.74C721.73,327.07,720.6,337.69,722.62,339.64Z" transform="translate(-568.01)"/></g></g></svg>