<svg id="Calque_6" data-name="Calque 6" xmlns="http://www.w3.org/2000/svg" viewBox="0 0 1711.98 1076.79"><defs><style>.cls-1{fill:#fff;}.cls-2,.cls-3{fill:none;stroke-miterlimit:10;}.cls-2{stroke:#000;}.cls-3{stroke:#fff;}.cls-4{fill:#f2d6ba;}</style></defs><path class="cls-1" d="M1417.6,341.29c-1.22-.61-2.45-1.22-3.68-1.81l-1.57-.77-.83-.39-.16-.07-.31-.15-.28-.14-.51-.24-.06,0,0,0-.15-.06,0,0c-1.16-.53-2.31-1.07-3.47-1.59h0l-1.87-.84-1.89-.82c-.62-.28-1.25-.56-1.88-.82l-1.9-.8c-1.27-.54-2.55-1.05-3.82-1.57s-2.56-1-3.85-1.51c-.58-.24-1.18-.46-1.78-.68l-.45-.17-1.33-.5-.14-.05-.31-.12c-1.25-.45-2.5-.91-3.76-1.35l-3.47-1.2a2.67,2.67,0,0,0-.26-.09l-.09,0-.48-.16-1.69-.55-1.06-.35-.64-.2c-.18-.07-.37-.13-.55-.18-.58-.19-1.17-.38-1.77-.55-.37-.13-.76-.24-1.14-.36l-.13,0c-.16,0-.33-.09-.49-.15h-.12l-.77-.23c-.52-.17-1.06-.33-1.59-.48l-1.6-.47-2-.57-1.75-.49-.26-.07-3.9-1-.15,0-4.07-1c-.84-.21-1.67-.4-2.51-.59l-.77-.18c-.1,0-.19,0-.29-.06l-.52-.12a6.36,6.36,0,0,0-.73-.16l-.14,0-.39-.09-.87-.2-1.24-.26-1.13-.24a2.17,2.17,0,0,0-.35-.07l-1.21-.25c-.19,0-.39-.08-.59-.12l-1-.2-1.79-.34q-.64-.14-1.29-.24l-1.27-.24L1339,315l-.41-.07c-1-.19-2.07-.37-3.11-.54l-.34-.06-.16,0-.15,0-1.57-.25c-.56-.1-1.13-.18-1.7-.27l-.4-.06-.33-.05-.74-.1c-.21,0-.43-.08-.64-.1l-1.33-.19-1-.14c-.46-.07-.92-.14-1.39-.19l-.14,0h-.12c-.65-.09-1.3-.18-1.94-.24l-.36,0-.21,0h0l-.29,0-.72-.09h-.08c-.63-.08-1.27-.15-1.9-.21l-.17,0h-.07l-.59-.07-.6-.06-.89-.1h-.1l-1.2-.11-2.4-.24h-.22l-.63-.06c-.86-.08-1.71-.15-2.58-.21h-.08l-.53,0h-.29l-.4,0h-.09l-1.3-.09h-.48l-.73-.06-.74,0-.5,0-.75,0h-.46l-.47,0h-.25l-.33,0-.41,0h-.15l-.53,0h-.4l-.38,0c-.34,0-.68,0-1-.05l-.63,0-.73,0-1.57-.05-.84,0h-1.48c-.46,0-.93,0-1.39,0h-.41l-1.4,0h-1.32c-.91,0-1.83,0-2.74,0-1.3,0-2.6,0-3.89,0s-2.37,0-3.55.07h-.56l-1.3,0-1.29,0-.55,0-3.7.16-3.42.2c-1,.06-2.06.13-3.09.21-.6,0-1.19.08-1.78.14l-.36,0-1.51.13h-.15l-1.62.15-1.61.15-1.43.14h-.07c-1,.11-2.09.21-3.12.34l-.26,0-3.08.38c-1,.11-1.9.24-2.85.37-.7.09-1.39.19-2.09.3l-.39.05-.93.13-.38.06-.44.07-1.67.26c-.66.09-1.31.2-2,.31l-.94.16h0l-2.93.51c-1.25.22-2.51.45-3.75.69l-.67.13-.87.17-1.21.24-.13,0-.19,0-1,.2-.32.07c-.67.13-1.34.28-2,.43-.26,0-.51.11-.76.16l-.33.07-.24.05c-.71.15-1.4.31-2.1.48l-.11,0h0l-.51.12-.62.15c-.84.19-1.67.38-2.5.59l-1,.23-.94.24-1.53.38-2.5.65a2.8,2.8,0,0,0-.31.09l-2.28.61-2.36.66-.59.17-2.15.63-.52.15-.26.08-1.56.47-.78.24-.77.24-2.4.76-.16,0-2.4.78-2.66.89-.1,0-2.38.83-2.08.75-1.22.43-2.2.82-.31.12c-.9.33-1.8.68-2.7,1l-2.38.93-.73.3-2.26.91c-1.22.5-2.43,1-3.64,1.54-.56.23-1.12.47-1.67.72l-.52.22-1.42.63-.12.06c-.26.1-.51.22-.77.33l-.08,0a.19.19,0,0,1-.08,0l-2.28,1.05-2.48,1.15-.11.05,0,0c-.86.41-1.71.81-2.56,1.23l-2.59,1.27c-.85.42-1.71.85-2.56,1.29l-1.27.65-1.28.66-2.53,1.34q-2.5,1.33-5,2.71l-.07,0q-2.19,1.23-4.34,2.49l-.49.28-1,.56c-.18.11-.35.22-.53.31s-.41.24-.6.37l-.51.3-.37.23c-.7.41-1.38.83-2.07,1.26l-2.43,1.5-.58.37-.38.24c-.24.14-.49.3-.73.46l-3.12,2c-.16.11-.32.22-.48.31-.34.25-.69.48-1,.7l-.85.57c-.8.53-1.59,1.07-2.37,1.6l-2.34,1.62c-.79.54-1.56,1.1-2.34,1.65-1.54,1.09-3.08,2.21-4.6,3.36l-2.28,1.7-2.35,1.8-.88.7c-.93.72-1.86,1.46-2.78,2.2-.14.1-.28.22-.42.33l0,0a1.71,1.71,0,0,0-.26.21l-.26.2-2.28,1.87-.32.27c-1.06.87-2.1,1.74-3.13,2.62l-3.09,2.67-1.53,1.35-1.51,1.36h0c-1,.91-2,1.83-3,2.75s-1.83,1.71-2.73,2.58l-.11.1h0l-.08.07-.81.79-1.68,1.62-1,.94c-.4.38-.79.77-1.17,1.16l-1.15,1.15h0l-.14.15-.12.12c-.12.12-.24.24-.35.37l-.49.49-.5.49c-.13.15-.28.29-.41.43-.3.31-.6.63-.91.94-.94,1-1.89,2-2.81,3s-1.85,2-2.77,3l-.22.24c-.84.93-1.68,1.86-2.5,2.8s-1.8,2-2.68,3.07a1,1,0,0,0-.1.11l-.74.87c-.16.18-.32.36-.47.55q-.59.68-1.14,1.35l-.16.19-.27.32-1,1.21q-.3.39-.63.78l-.06.08-.19.22-.31.37-.32.4-.14.18-.09.11q-1.1,1.35-2.16,2.7l-1,1.27c-.51.65-1,1.3-1.51,2l-.06.06c-.59.77-1.17,1.55-1.75,2.32l-.34.45c-.1.14-.2.28-.32.43l-.31.42c-.14.19-.28.37-.41.56l-.86,1.15-.83,1.16c-.71,1-1.4,1.94-2.09,2.92l-.63.9a4.68,4.68,0,0,0-.27.4c-.08.1-.14.19-.21.29-.19.25-.36.51-.54.78l-.33.47a5,5,0,0,0-.3.45c-.16.22-.31.44-.45.65l-.27.4c-.2.31-.42.61-.63.92-.34.51-.68,1-1,1.52-.17.25-.35.51-.52.78-.44.65-.86,1.31-1.28,2-.14.19-.26.39-.39.58a.12.12,0,0,1,0,.08l-.27.41-.63,1-.13.22c-.17.25-.33.52-.49.78l-.86,1.36c-.5.8-1,1.61-1.48,2.42s-1.12,1.84-1.66,2.76l-1.16,2c-.09.15-.18.3-.26.46l-.15.25c-.55.95-1.09,1.9-1.63,2.86s-1.25,2.24-1.87,3.37-1.25,2.32-1.87,3.5l-.51,1c-.14.28-.3.57-.45.85l-.51,1h0s0,0,0,0l0,0-.1.17c-.07.15-.15.29-.22.44l-.06.12-.46.92c-.11.21-.21.42-.32.62s-.27.54-.4.81c0,.08-.07.14-.1.21-.12.23-.23.47-.35.71s-.26.51-.38.77-.21.41-.31.62l-.24.52c-.15.28-.29.57-.41.85a.48.48,0,0,0-.08.16l-.08.16c-.06.11-.11.22-.16.33a1.11,1.11,0,0,1-.07.16,2.56,2.56,0,0,0-.11.24.82.82,0,0,0-.09.19c-.14.27-.26.52-.38.78s-.11.24-.16.37l-.07.12c0,.11-.1.22-.16.33s-.21.47-.32.7-.33.71-.48,1.06-.34.72-.5,1.08l-.49,1.08v0a3.52,3.52,0,0,0-.17.39c-.39.85-.77,1.72-1.14,2.58s-.73,1.68-1.09,2.53l-.16.37c0,.11-.09.21-.13.31a2.18,2.18,0,0,0-.09.23l-.06.13-.09.22c-.24.54-.46,1.09-.68,1.64L1020,491l-.81,2c-.14.34-.26.68-.4,1a1.31,1.31,0,0,1,0,.15c-.18.43-.35.87-.52,1.32a1.19,1.19,0,0,1-.08.2c-.19.53-.4,1-.58,1.57-.31.77-.59,1.55-.88,2.34,0,.1-.07.19-.1.28-.38,1-.74,2.06-1.11,3.08a1.87,1.87,0,0,1-.07.22c0,.16-.11.32-.17.48-.11.33-.23.65-.34,1s-.23.65-.33,1v0c-.11.31-.21.61-.31.92-.41,1.18-.8,2.38-1.18,3.57-.14.43-.29.86-.41,1.28,0,.14-.09.28-.13.42-.14.4-.26.8-.39,1.21-.2.65-.4,1.3-.59,1.95,0,.05,0,.08,0,.13l-.08.26c-.21.68-.42,1.37-.61,2a.64.64,0,0,1,0,.07c0,.16-.1.33-.14.49-.12.36-.22.71-.31,1.06s-.15.48-.21.72-.18.62-.26.93-.14.49-.2.73-.06.23-.1.35l-.37,1.36-.12.41c0,.12-.06.25-.1.37-.1.4-.21.79-.31,1.19-.15.55-.28,1.08-.43,1.62,0,.19-.09.39-.14.57-.14.56-.28,1.13-.43,1.7s-.28,1.14-.41,1.7c-.06.21-.1.41-.15.61a2.46,2.46,0,0,1-.07.29c-.13.56-.27,1.11-.39,1.66a.43.43,0,0,1,0,0c-.06.23-.11.44-.15.66s0,.24-.08.36l-.12.48v0s0,0,0,.06a2.86,2.86,0,0,0-.1.42c-.05.18-.09.37-.13.57,0,0,0,.09,0,.14-.09.35-.17.71-.24,1.07s-.12.52-.17.78c0,.06,0,.12,0,.18-.06.27-.11.54-.18.81s-.09.43-.13.66c0,0,0,.1,0,.16-.14.65-.27,1.31-.4,2l-.06.29c0,.09,0,.19,0,.28-.06.29-.13.59-.18.9s-.12.65-.19,1-.09.42-.12.64-.1.52-.14.78a2.21,2.21,0,0,0-.05.25c-.08.37-.15.76-.21,1.14,0,.13-.06.28-.08.42l-.06.32c-.07.37-.13.75-.19,1.11l-.45,2.56s0,.09,0,.14l-.09.53a1.85,1.85,0,0,1,0,.23c-.11.64-.2,1.26-.3,1.89l0,.15-.09.63c0,.19-.06.4-.09.59s0,.35-.08.52l-.06.4c0,.34-.1.68-.14,1-.08.5-.14,1-.22,1.5a2.54,2.54,0,0,1,0,.29c0,.11,0,.22,0,.32a.38.38,0,0,0,0,.1q-.06.33-.09.66c0,.15,0,.29-.06.45l-.06.42v0c-.13,1-.26,2-.37,3-.09.71-.17,1.42-.25,2.13s-.16,1.43-.23,2.15c-.06.45-.1.91-.15,1.38-.08.79-.16,1.59-.23,2.38,0,.09,0,.19,0,.29a1.79,1.79,0,0,1,0,.23c-.13,1.41-.24,2.82-.35,4.24,0,0,0,0,0,.06-.08,1.1-.16,2.2-.22,3.29,0,.21,0,.4,0,.61,0,.43-.05.88-.08,1.32,0,.14,0,.28,0,.42s0,.15,0,.23c0,.34,0,.68,0,1,0,.12,0,.25,0,.37a1.94,1.94,0,0,0,0,.24c0,.14,0,.28,0,.41s0,.29,0,.43l0,.81c0,.14,0,.29,0,.43,0,.36,0,.73,0,1.08s0,.88,0,1.31c0,.21,0,.41,0,.63s0,.52,0,.79c0,.1,0,.2,0,.31s0,.28,0,.42,0,.53,0,.8,0,.35,0,.52,0,.26,0,.39v.1c0,.11,0,.21,0,.32,0,.5,0,1,0,1.51,0,.17,0,.34,0,.51v.15q0,1.69,0,3.39c0,1.25,0,2.48,0,3.73l0,2.09c0,.54,0,1.08,0,1.62s0,1.19.05,1.77c.08,2.75.21,5.47.37,8.19a96.29,96.29,0,0,0-83,0c.17-2.72.29-5.45.38-8.19l0-1.77c0-.53,0-1.07,0-1.6,0-.7,0-1.41,0-2.11,0-1.25,0-2.48,0-3.73s0-2.48,0-3.73c0-.56,0-1.13,0-1.69s0-1.13,0-1.69c0-.12,0-.23,0-.33,0-1.21-.06-2.42-.12-3.63,0-1-.08-2.08-.13-3.12l-.06-1.26c-.06-1-.11-2-.18-3.08s-.12-1.79-.18-2.69c0-.22,0-.42,0-.64s-.05-.51-.07-.78v-.15c-.06-.62-.11-1.24-.17-1.85-.08-1-.17-2.08-.27-3.11-.16-1.7-.34-3.39-.54-5.08-.06-.56-.12-1.12-.19-1.67-.13-1.08-.26-2.16-.4-3.24s-.29-2.16-.44-3.23c0-.13,0-.27-.06-.39s0-.32-.06-.47,0-.32-.07-.48c-.05-.32-.09-.63-.15-.94-.07-.51-.15-1-.23-1.52,0-.09,0-.18,0-.27-.09-.6-.19-1.2-.29-1.8l0-.32q-.62-3.74-1.33-7.44c-.1-.54-.21-1.1-.32-1.65s-.21-1.08-.32-1.64c0-.08,0-.16-.05-.25-.24-1.17-.49-2.34-.75-3.5-.12-.59-.25-1.18-.38-1.76s-.26-1.16-.4-1.74c-.25-1.11-.52-2.23-.79-3.33,0-.19-.09-.38-.13-.55-.26-1-.52-2.05-.77-3.07s-.51-1.95-.78-2.92l0-.13c-.24-.89-.48-1.79-.73-2.68l-.08-.29c0-.15-.08-.28-.13-.42-.23-.84-.48-1.68-.72-2.52s-.53-1.81-.8-2.71l-.18-.58c-.28-.93-.57-1.86-.86-2.78,0,0,0-.07,0-.11s0-.12-.05-.17l0-.05s0-.05,0-.06l-.1-.32c-.22-.68-.43-1.36-.66-2-.32-1-.66-2-1-3,0,0,0,0,0,0-.35-1-.68-2-1-3-.17-.51-.35-1-.53-1.5s-.37-1-.55-1.51c-.3-.83-.6-1.66-.91-2.49-.07-.16-.13-.33-.19-.49-.38-1-.75-2-1.14-3s-.78-2-1.18-2.95c-.25-.65-.51-1.29-.78-1.93-.32-.79-.65-1.57-1-2.35s-.66-1.55-1-2.33l-1-2.32c-.31-.7-.62-1.41-.94-2.1l-1.15-2.51-1.08-2.29q-1.08-2.28-2.21-4.55l-.69-1.39-.71-1.39c-.51-1-1-2-1.57-3-.31-.6-.63-1.2-1-1.79l-.16-.29c-.12-.24-.25-.47-.38-.71l-.61-1.13,0-.05c-.35-.64-.69-1.28-1-1.9-1.36-2.46-2.77-4.9-4.21-7.31-.14-.22-.26-.45-.39-.67l-.13-.2c-.29-.5-.6-1-.92-1.51,0-.06-.07-.11-.1-.18l-.27-.43c-.31-.53-.63-1.05-1-1.58-.7-1.12-1.4-2.24-2.11-3.35s-1.41-2.19-2.12-3.27l-.52-.78-2-2.93c-.24-.36-.48-.71-.73-1.06-.05-.07-.09-.14-.14-.2l-1.19-1.72a.86.86,0,0,1-.07-.1l-.14-.18-.24-.36c-.14-.19-.28-.4-.42-.6-.81-1.14-1.62-2.28-2.45-3.41-.7-1-1.4-1.92-2.11-2.86l-.13-.18-.05-.06-.93-1.22-.08-.11c-.66-.88-1.33-1.76-2-2.63-.79-1-1.58-2-2.39-3.05l0-.05c-1.13-1.42-2.27-2.82-3.43-4.22l-2.34-2.8-.44-.5c-.85-1-1.71-2-2.57-3l0,0q-1.46-1.65-2.92-3.27c-.09-.09-.17-.19-.25-.28-.92-1-1.82-2-2.75-3s-1.84-2-2.77-2.93l-.62-.64-2.1-2.16c-.44-.43-.88-.87-1.31-1.31l-2.45-2.42-3-2.93-.41-.38-2.66-2.48-.53-.49-.8-.73c-.74-.68-1.49-1.35-2.24-2-1-.92-2-1.82-3.07-2.71l-.24-.2c-1.08-.93-2.16-1.86-3.25-2.77l-.36-.31-2.85-2.35-.43-.34q-3.36-2.73-6.81-5.36c-1.18-.9-2.35-1.78-3.53-2.66s-2.38-1.74-3.57-2.6L793,361.66l0,0q-1.81-1.27-3.66-2.5l-3.69-2.43-2.12-1.37c-1.43-.9-2.85-1.8-4.28-2.67L777,351.36l-2.17-1.29c-1.45-.85-2.91-1.7-4.38-2.53l-2.21-1.23L766,345.1l-2.24-1.21-2.24-1.17c-.75-.38-1.5-.78-2.26-1.16-1.25-.64-2.51-1.26-3.77-1.89l-2.36-1.14-2.31-1.08c-.77-.37-1.54-.72-2.32-1.08-1-.45-2-.91-3-1.35l-.43-.19-1.9-.83q-2.34-1-4.7-2l-2.24-.91L736,331l-2.26-.89c-1.68-.66-3.36-1.31-5.06-1.93l-2.12-.77c-1.61-.58-3.23-1.14-4.85-1.7l-2.43-.81-2.09-.68c-1.74-.56-3.51-1.11-5.27-1.64l-2.47-.73q-2.47-.72-5-1.4l-1.77-.47-.85-.22c-.79-.22-1.59-.42-2.39-.62l-2.52-.62-.84-.2-1.17-.28-1-.23c-1.21-.28-2.41-.55-3.62-.81-1-.22-2-.44-3-.64-1.32-.28-2.66-.54-4-.8l-.24,0-2.61-.49-.17,0-.17,0c-1.09-.2-2.17-.4-3.26-.57l-2.94-.48-.51-.08-1.68-.25-.38-.06h-.07l-2.57-.37c-1.84-.26-3.7-.5-5.56-.71l-2.13-.25-.17,0c-1.75-.19-3.5-.37-5.28-.53l-2.58-.23H653c-1.08-.09-2.15-.18-3.23-.25l-.2,0-.37,0-.29,0h-.35c-.65-.06-1.3-.09-2-.13l-.22,0H646c-.51,0-1-.07-1.55-.09s-1.11-.07-1.66-.09c-.92-.05-1.84-.08-2.77-.12l-1.31,0-1.73-.06-1.32,0-1.38,0-1.49,0h-.19c-1.24,0-2.48,0-3.73,0s-2.43,0-3.64,0c-.53,0-1.07,0-1.6,0h-.53l-2.26.05c-.69,0-1.38,0-2.07.07s-1.24,0-1.86.07-1.33.05-2,.09h-.08l-2.37.12-1.71.1c-1.26.08-2.52.16-3.77.26-1.45.1-2.89.23-4.33.35h0l-3.76.37-1.45.16c-1.12.11-2.24.25-3.35.38-1.3.15-2.6.32-3.89.49l-.68.1-2.92.41-1.62.24c-1.22.19-2.44.38-3.65.59l-.2,0-2.44.43-1.4.25-1,.19c-.7.12-1.41.26-2.12.4s-1.67.31-2.5.49l-1.81.36-.36.08-2.21.47-1.84.4-.22.06-1.44.33-2.67.62-.15,0-.14,0-.5.13-.64.16c-.82.19-1.63.4-2.45.61s-1.45.37-2.17.57l-2.3.61-1.34.37-2.51.71-1.12.32-2.69.81-1.74.54-.67.2-.35.11-.65.2-.34.12-1.58.5q-3.43,1.11-6.82,2.31l-1.74.63-.13,0-1.71.62-.75.28-.43.16c-1,.36-1.92.72-2.88,1.1l-.31.11-.92.36c-.15.06-.31.11-.46.18l-3,1.19-3.16,1.3-.17.07-.05,0q-1.1.45-2.19.93l-.1,0-.09,0-.28.13h0a.94.94,0,0,0-.15.06l-.08,0c-.8.34-1.6.7-2.39,1.05l-.19.08-2.33,1.05-.77.35-2.44,1.14-.16.07-1.46.71h0c-.66.32-1.31.63-2,1s-1.42.68-2.13,1.05a2.91,2.91,0,0,0-.35.18c-.73.33-1.43.7-2.14,1.06q4-13.14,8.72-25.94a480.34,480.34,0,0,1,67.19-122.93C660.11,78.54,796.32,3.93,950.06,1.5h15.52a481.29,481.29,0,0,1,443.7,315.07Q1413.77,328.78,1417.6,341.29Z" transform="translate(-104.02 -1)"/><path class="cls-1" d="M1409.79,836.92c-.09.25-.19.5-.28.76-.47,1.31-1,2.62-1.45,3.92q-.6,1.62-1.23,3.24c-.22.6-.46,1.22-.71,1.83-.38,1-.77,2-1.16,3-.48,1.2-1,2.4-1.45,3.6-.09.24-.19.49-.3.74-.49,1.22-1,2.44-1.5,3.65s-1.11,2.64-1.68,4-1,2.45-1.58,3.67l0,0c-.07.18-.15.36-.24.55-.53,1.21-1.07,2.42-1.61,3.62s-1.18,2.62-1.78,3.92l-1.8,3.87a0,0,0,0,1,0,0c-.61,1.29-1.23,2.58-1.85,3.86s-1.25,2.57-1.88,3.86-1.26,2.56-1.91,3.83c-.53,1-1,2.08-1.59,3.12q-.29.59-.6,1.17c-.57,1.12-1.15,2.22-1.74,3.33s-1.33,2.52-2,3.77-1.37,2.51-2.05,3.76-1.24,2.24-1.86,3.35c-.09.18-.19.35-.29.52-.67,1.2-1.35,2.39-2,3.58l-.82,1.43A288.92,288.92,0,0,1,1249.78,624.7C1265.53,718.58,1326.63,797.09,1409.79,836.92Z" transform="translate(-104.02 -1)"/><path class="cls-1" d="M1146,938.23l-110-.47c4.22-.24-41.43-.06-37.23-.42l-84,.42c4.19.35-35.73-.24-31.52,0l-109.1.47c-.08-2.36-.13-4.74-.13-7.12a186.07,186.07,0,1,1,372.14,0C1146.08,933.49,1146,935.87,1146,938.23Z" transform="translate(-104.02 -1)"/><path class="cls-1" d="M1291.56,480.92a95.09,95.09,0,0,1,1.42,16.47c0,.83,0,1.65,0,2.48,0,1.5-.11,3-.21,4.46,0,.27,0,.54-.07.8-.11,1.53-.27,3.05-.47,4.55-.08.66-.17,1.32-.26,2,0,0,0,.07,0,.12-.06.39-.13.79-.19,1.18-.14.88-.29,1.76-.47,2.63s-.34,1.67-.52,2.51c-.13.64-.27,1.26-.43,1.88-.23.95-.47,1.88-.72,2.82-.15.51-.29,1-.44,1.54a.17.17,0,0,1,0,.11q-.13.55-.33,1.11a1.41,1.41,0,0,1-.09.32l-.48,1.52-.51,1.51c-.35,1-.71,2-1.1,3-.18.46-.35.92-.54,1.38-.48,1.23-1,2.44-1.55,3.63-.07.17-.15.34-.23.5s-.08.19-.13.29c-.21.46-.42.93-.65,1.38q-1.58,3.3-3.41,6.45c-.33.58-.67,1.15-1,1.72-.53.89-1.09,1.78-1.66,2.65l-.76,1.14q-.56.84-1.14,1.65c-.21.32-.44.62-.66.92-.68,1-1.4,1.92-2.13,2.86l-1,1.22c-.65.81-1.31,1.61-2,2.39-.34.4-.68.8-1,1.19l-1,1.15-.1.11c-.49.54-1,1.06-1.49,1.58l-.07.07c-.52.54-1.06,1.08-1.59,1.61-.31.3-.61.61-.92.9l-1,.9c-.69.64-1.38,1.27-2.09,1.89l-1,.83c-.91.79-1.83,1.56-2.78,2.31l-.7.55c-1,.77-2,1.5-3,2.23l-1.3.91c-.48.34-1,.67-1.46,1s-1,.66-1.47,1l-1,.62c-.67.43-1.35.84-2,1.24l-.73.43-.75.43-.09,0a1.65,1.65,0,0,1-.26.14c-.23.14-.47.27-.7.39-.4.23-.8.46-1.21.67l-.7.37-.06,0-1,.52-.18.1-1.17.58,0,0-.93.45c-.21.1-.43.21-.65.3-.47.23-.95.45-1.43.66l-.94.41c-.59.26-1.2.51-1.8.76s-1,.4-1.47.58-1,.39-1.48.56-.78.3-1.18.43a8.15,8.15,0,0,1-.83.29l-.86.3c-.64.21-1.28.43-1.94.62s-1.5.46-2.27.68-1.52.43-2.29.62-1.54.38-2.31.56-1.42.32-2.13.47l-.8.16c-.59.12-1.17.24-1.76.33s-1.38.24-2.07.35l-.75.12-1.8.25-2.58.29c-.57.06-1.15.12-1.74.16-1,.09-2.08.16-3.13.21-.82.05-1.65.08-2.47.09s-1.66,0-2.48,0a96.16,96.16,0,0,1-94.74-112.62,96.15,96.15,0,0,0,91.17,79.61q2.12,1.37,4.32,2.63,2.16-1.27,4.23-2.69c.8,0,1.59-.09,2.4-.16.6,0,1.21-.09,1.82-.15.45,0,.9-.09,1.35-.14a2,2,0,0,0,.34,0l1-.11c.68-.08,1.36-.17,2-.28l.93-.14c1.81-.28,3.61-.61,5.38-1l1.49-.33c.67-.15,1.34-.32,2-.49a92.32,92.32,0,0,0,9.53-2.95L1232,554l1.57-.64c.76-.32,1.53-.64,2.29-1q.86-.37,1.71-.78c.6-.28,1.21-.57,1.8-.87s1-.49,1.48-.75q3.36-1.73,6.54-3.69c.72-.45,1.42-.9,2.12-1.37l.77-.5a94,94,0,0,0,8.54-6.44l1-.89c.42-.36.83-.73,1.24-1.1.2-.17.4-.34.58-.52l.35-.32.3-.28c.48-.44,1-.9,1.42-1.34s1-.94,1.41-1.41.94-.94,1.39-1.42.91-1,1.36-1.46.9-1,1.32-1.49c1.85-2.1,3.59-4.28,5.24-6.53.29-.41.58-.8.86-1.21.54-.74,1-1.49,1.56-2.26l1-1.51c.39-.61.77-1.22,1.15-1.84.67-1.12,1.32-2.24,2-3.38.24-.43.48-.86.71-1.31,1-1.82,1.89-3.68,2.75-5.58.21-.47.43-.94.62-1.41.06-.14.13-.28.18-.41.25-.57.48-1.14.71-1.71s.46-1.14.68-1.71c0-.11.09-.22.12-.33.22-.56.42-1.13.63-1.7.71-2,1.36-4,1.93-6,.18-.61.34-1.21.5-1.82s.34-1.32.5-2,.28-1.18.4-1.76C1291,483.8,1291.31,482.37,1291.56,480.92Z" transform="translate(-104.02 -1)"/><path class="cls-1" d="M1041.6,655.11a96.08,96.08,0,0,1,7,15q-1.6,4.36-3.59,8.53a96.14,96.14,0,0,1-86,54.67h-.81a96.18,96.18,0,0,1-90.36-63.21,96.28,96.28,0,0,1,8.77-18c1.43,2.49,3,4.91,4.62,7.24A96.15,96.15,0,0,0,1036.09,663,92.13,92.13,0,0,0,1041.6,655.11Z" transform="translate(-104.02 -1)"/><path class="cls-1" d="M665.79,623.81a289.54,289.54,0,0,1,4,48.07c0,100.31-51.2,188.65-128.89,240.34-.21-.38-.44-.75-.65-1.13l-.27-.48c-.71-1.24-1.41-2.49-2.11-3.74l-2-3.52c-.66-1.19-1.31-2.39-1.95-3.59-.39-.73-.78-1.46-1.16-2.19,0,0,0-.1-.08-.15-.47-.88-.94-1.76-1.39-2.64-.06-.11-.12-.22-.17-.33-.43-.8-.85-1.61-1.25-2.42q-3.92-7.59-7.55-15.35L521,873.76q-1.14-2.46-2.25-5c-.53-1.16-1-2.33-1.55-3.51l-.19-.43h0q-1-2.25-2-4.53c-.26-.63-.54-1.27-.81-1.92s-.54-1.28-.8-1.93-.43-1.05-.65-1.57q-2.35-5.73-4.55-11.52-.83-2.19-1.64-4.41c-.35-1-.7-1.9-1-2.86C588.83,796.33,650,717.77,665.79,623.81Z" transform="translate(-104.02 -1)"/><path class="cls-1" d="M631.42,506.6c.24.49.48,1,.73,1.46.33.67.69,1.35,1.05,2,.18.34.36.68.57,1a.1.1,0,0,0,0,.08c.14.28.29.54.45.81,0,.06.08.13.11.2.22.4.45.79.7,1.18a1.69,1.69,0,0,0,.17.29c.3.53.62,1.05,1,1.56.58.95,1.18,1.87,1.8,2.79.2.31.41.61.63.92.56.83,1.15,1.65,1.74,2.45.38.53.77,1,1.16,1.55l.17.21q1.35,1.77,2.8,3.48l.88,1c.33.39.67.78,1,1.16s.56.63.84.93l1,1c.95,1,1.93,2,2.93,3,.3.29.6.58.91.86.55.53,1.11,1,1.67,1.53s1,.87,1.46,1.28c1.6,1.39,3.26,2.73,5,4,.25.2.5.39.76.56,1.38,1,2.79,2,4.22,3l1.08.69c.72.48,1.44.92,2.18,1.36.42.25.85.51,1.28.75.85.5,1.71,1,2.58,1.45l1.31.69c.56.3,1.12.59,1.69.86l.51.25c.59.3,1.19.57,1.79.85s.9.42,1.36.61.91.41,1.37.6.92.4,1.38.58l1,.39.56.22,1.15.43c.43.17.85.32,1.28.47.61.23,1.24.44,1.86.64.4.15.81.28,1.22.4s1,.3,1.43.44l1.45.43q2,.56,3.93,1c.57.14,1.13.27,1.7.39l.44.1,1.37.28a.34.34,0,0,0,.14,0l1,.19.36.06c.79.15,1.58.29,2.39.4a2.57,2.57,0,0,0,.4.08c.46.07.92.14,1.39.19l1.47.2c1.86.23,3.72.4,5.6.51.31,0,.61.05.92.06l1.68.08h0c.12.08.23.16.36.23.53.35,1.08.68,1.63,1,.27.18.38-.94.61-1.18h.2a.56.56,0,0,0,.44,0h.32c.55,0,1.11,0,1.65,0a1.56,1.56,0,0,0,1.17,0h0l1,0a1.23,1.23,0,0,0,1.13,0,96.15,96.15,0,0,0,89.75-79.55,96.21,96.21,0,0,1-94.74,112.62c-.75,0-1.5,0-2.26,0s-1.59,0-2.38-.08c-.24,0-.49,0-.73,0-1.55-.08-3.09-.21-4.62-.37q-.92-.09-1.83-.21-.48,0-.93-.12l-1.46-.19-.29,0-1-.16a2.11,2.11,0,0,1-.35,0l-.37-.06h0c-.45-.07-.91-.15-1.36-.24h0a.58.58,0,0,1-.14,0l-1.21-.23c-.33-.06-.66-.13-1-.21-.73-.14-1.45-.31-2.17-.48-.53-.11-1-.25-1.56-.38-.28-.06-.55-.13-.83-.21q-.78-.2-1.53-.42a7.66,7.66,0,0,1-.82-.23c-.59-.17-1.18-.34-1.75-.53s-1-.31-1.5-.48l-1.22-.41c-.5-.16-1-.34-1.47-.51l-1.45-.55L683,587l-.67-.26-.23-.09-1.3-.54c-.23-.09-.46-.18-.68-.29-.45-.19-.9-.38-1.35-.59s-.78-.34-1.17-.53c-.23-.09-.45-.2-.68-.31l-1.11-.54c-.74-.34-1.46-.71-2.18-1.1-.46-.23-.91-.46-1.35-.71s-.92-.49-1.38-.76l-1.13-.64-.13-.08c-.53-.3-1.07-.62-1.59-.95s-1-.64-1.57-1c-.29-.18-.6-.37-.88-.57-1-.62-1.93-1.27-2.88-1.94-.39-.26-.77-.54-1.15-.82s-.81-.57-1.2-.88-.8-.6-1.2-.91l-.27-.21-1-.76c-.93-.74-1.85-1.51-2.75-2.28l-1.16-1a.26.26,0,0,1-.09-.09l-1-.87c-.87-.79-1.71-1.59-2.55-2.43-.39-.37-.77-.76-1.15-1.15v0c-.61-.62-1.22-1.25-1.81-1.89s-1.2-1.3-1.77-2c-.32-.36-.63-.7-.93-1.07-.13-.13-.24-.28-.36-.42-.34-.4-.66-.8-1-1.2s-.61-.75-.91-1.12l-.84-1.09c-.27-.34-.53-.67-.78-1s-.66-.88-1-1.34c-.21-.28-.4-.56-.61-.83-.73-1-1.44-2.09-2.12-3.16l-.63-1c-1.11-1.75-2.16-3.56-3.16-5.39-.32-.6-.64-1.18-.94-1.78-.65-1.25-1.27-2.5-1.85-3.78l-.54-1.21c-.5-1.08-1-2.19-1.4-3.31-.14-.31-.26-.63-.38-.94q-.33-.83-.63-1.68c-.21-.57-.41-1.13-.61-1.7-.14-.41-.28-.82-.41-1.23-.19-.56-.37-1.11-.54-1.67q-.35-1.09-.66-2.22c-.12-.4-.24-.82-.34-1.25-.21-.75-.41-1.51-.58-2.27-.08-.31-.16-.63-.23-.94-.15-.62-.28-1.23-.41-1.86l-.24-1.14c-.09-.49-.19-1-.27-1.46-.14-.7-.26-1.41-.37-2.12-.09-.53-.16-1.06-.24-1.59-.1-.71-.19-1.43-.27-2.15,0-.29-.07-.57-.1-.87a1,1,0,0,1,0-.25c0-.33-.08-.67-.1-1s-.08-.75-.11-1.12-.07-.92-.11-1.38c0-.1,0-.2,0-.3l-.06-.93c-.06-1.06-.11-2.12-.13-3.19,0-.83,0-1.65,0-2.48a95.09,95.09,0,0,1,1.42-16.47c.08.47.17.93.26,1.4s.14.77.22,1.15a3,3,0,0,0,.06.32c.08.4.16.8.25,1.2.12.56.25,1.11.38,1.66.07.3.14.59.22.88q.21.9.45,1.77c.15.59.31,1.18.48,1.76q.81,2.83,1.8,5.59c.08.26.18.51.28.76.32.9.66,1.8,1,2.69.12.32.25.64.38,1l.53,1.25c.1.26.22.51.34.76a.61.61,0,0,0,.07.17c.08.21.18.42.28.63s.19.43.29.64l.43.94C631,505.84,631.23,506.22,631.42,506.6Z" transform="translate(-104.02 -1)"/><path class="cls-2" d="M714.29,560.53c.87,0,1.73.06,2.6.06h1c.55,0,1.11,0,1.65,0s.79,0,1.19,0l1,0,1.13,0" transform="translate(-104.02 -1)"/><path class="cls-2" d="M703.22,559.49c.46.07.92.14,1.39.19" transform="translate(-104.02 -1)"/><path class="cls-2" d="M688.66,556.08c.48.16,1,.3,1.43.44" transform="translate(-104.02 -1)"/><path class="cls-2" d="M678.87,552.35c.45.22.91.41,1.37.6" transform="translate(-104.02 -1)"/><path class="cls-2" d="M645.37,527.62c.33.39.67.78,1,1.16" transform="translate(-104.02 -1)"/><path class="cls-2" d="M635.24,513.65c.31.53.62,1.05,1,1.56" transform="translate(-104.02 -1)"/><path class="cls-2" d="M633.2,510.07q.27.51.57,1" transform="translate(-104.02 -1)"/><path class="cls-2" d="M629.86,503.24c.09.21.18.42.28.63" transform="translate(-104.02 -1)"/><path class="cls-2" d="M649.2,564.69c-.62-.61-1.23-1.25-1.81-1.89" transform="translate(-104.02 -1)"/><path class="cls-2" d="M1290.31,487c.14-.59.27-1.18.4-1.76" transform="translate(-104.02 -1)"/><path class="cls-2" d="M1265.15,532.09c.48-.47.94-.94,1.39-1.42s.91-1,1.36-1.46" transform="translate(-104.02 -1)"/><path class="cls-2" d="M1206,560.16c.45,0,.9-.09,1.35-.14" transform="translate(-104.02 -1)"/><path class="cls-2" d="M1193.26,560.53c1.18.05,2.37.07,3.57.07,1.67,0,3.33-.05,5-.13" transform="translate(-104.02 -1)"/><path class="cls-2" d="M1245.09,580.56c-.16.11-.33.19-.49.29a.46.46,0,0,1-.14.07l-.12.07" transform="translate(-104.02 -1)"/><path class="cls-2" d="M1291.25,515.58c-.15.84-.32,1.68-.52,2.51" transform="translate(-104.02 -1)"/><path class="cls-3" d="M916.75,616.28c.17-2.72.29-5.45.38-8.19l0-1.77c0-.53,0-1.07,0-1.6,0-.7,0-1.41,0-2.11,0-1.25,0-2.48,0-3.73s0-2.48,0-3.73c0-.56,0-1.13,0-1.69s0-1.13,0-1.69c0-.12,0-.23,0-.33,0-1.21-.06-2.42-.12-3.63,0-1-.08-2.08-.13-3.12l-.06-1.26c-.06-1-.11-2-.18-3.08s-.12-1.79-.18-2.69c0-.22,0-.42,0-.64s-.05-.51-.07-.78v-.15c-.06-.62-.11-1.24-.17-1.85-.08-1-.17-2.08-.27-3.11-.16-1.7-.34-3.39-.54-5.08-.06-.56-.12-1.12-.19-1.67-.13-1.08-.26-2.16-.4-3.24s-.29-2.16-.44-3.23c0-.13,0-.27-.06-.39s0-.32-.06-.47,0-.32-.07-.48c-.05-.32-.09-.63-.15-.94-.07-.51-.15-1-.23-1.52,0-.09,0-.18,0-.27-.09-.6-.19-1.2-.29-1.8l0-.32q-.62-3.74-1.33-7.44c-.1-.54-.21-1.1-.32-1.65s-.21-1.08-.32-1.64c0-.08,0-.16-.05-.25-.24-1.17-.49-2.34-.75-3.5-.12-.59-.25-1.18-.38-1.76s-.26-1.16-.4-1.74c-.25-1.11-.52-2.23-.79-3.33,0-.19-.09-.38-.13-.55-.26-1-.52-2.05-.77-3.07s-.51-1.95-.78-2.92l0-.13c-.24-.89-.48-1.79-.73-2.68l-.08-.29c0-.15-.08-.28-.13-.42-.23-.84-.48-1.68-.72-2.52s-.53-1.81-.8-2.71l-.18-.58c-.28-.93-.57-1.86-.86-2.78,0,0,0-.07,0-.11s0-.12-.05-.17l0-.05s0-.05,0-.06l-.1-.32c-.22-.68-.43-1.36-.66-2-.32-1-.66-2-1-3,0,0,0,0,0,0-.35-1-.68-2-1-3-.17-.51-.35-1-.53-1.5s-.37-1-.55-1.51c-.3-.83-.6-1.66-.91-2.49-.07-.16-.13-.33-.19-.49-.38-1-.75-2-1.14-3s-.78-2-1.18-2.95c-.25-.65-.51-1.29-.78-1.93-.32-.79-.65-1.57-1-2.35s-.66-1.55-1-2.33l-1-2.32c-.31-.7-.62-1.41-.94-2.1l-1.15-2.51-1.08-2.29q-1.08-2.28-2.21-4.55l-.69-1.39-.71-1.39c-.51-1-1-2-1.57-3-.31-.6-.63-1.2-1-1.79l-.16-.29c-.12-.24-.25-.47-.38-.71l-.61-1.13,0-.05c-.35-.64-.69-1.28-1-1.9-1.36-2.46-2.77-4.9-4.21-7.31-.14-.22-.26-.45-.39-.67l-.13-.2c-.29-.5-.6-1-.92-1.51,0-.06-.07-.11-.1-.18l-.27-.43c-.31-.53-.63-1.05-1-1.58-.7-1.12-1.4-2.24-2.11-3.35s-1.41-2.19-2.12-3.27l-.52-.78-2-2.93c-.24-.36-.48-.71-.73-1.06-.05-.07-.09-.14-.14-.2l-1.19-1.72a.86.86,0,0,1-.07-.1l-.14-.18-.24-.36c-.14-.19-.28-.4-.42-.6-.81-1.14-1.62-2.28-2.45-3.41-.7-1-1.4-1.92-2.11-2.86l-.13-.18-.05-.06-.93-1.22-.08-.11c-.66-.88-1.33-1.76-2-2.63-.79-1-1.58-2-2.39-3.05l0-.05c-1.13-1.42-2.27-2.82-3.43-4.22l-2.34-2.8-.44-.5c-.85-1-1.71-2-2.57-3l0,0q-1.46-1.65-2.92-3.27c-.09-.09-.17-.19-.25-.28-.92-1-1.82-2-2.75-3s-1.84-2-2.77-2.93l-.62-.64-2.1-2.16c-.44-.43-.88-.87-1.31-1.31l-2.45-2.42-3-2.93-.41-.38-2.66-2.48-.53-.49-.8-.73c-.74-.68-1.49-1.35-2.24-2-1-.92-2-1.82-3.07-2.71l-.24-.2c-1.08-.93-2.16-1.86-3.25-2.77l-.36-.31-2.85-2.35-.43-.34q-3.36-2.73-6.81-5.36c-1.18-.9-2.35-1.78-3.53-2.66s-2.38-1.74-3.57-2.6L793,361.66l0,0q-1.81-1.27-3.66-2.5l-3.69-2.43-2.12-1.37c-1.43-.9-2.85-1.8-4.28-2.67L777,351.36l-2.17-1.29c-1.45-.85-2.91-1.7-4.38-2.53l-2.21-1.23L766,345.1l-2.24-1.21-2.24-1.17c-.75-.38-1.5-.78-2.26-1.16-1.25-.64-2.51-1.26-3.77-1.89l-2.36-1.14-2.31-1.08c-.77-.37-1.54-.72-2.32-1.08-1-.45-2-.91-3-1.35l-.43-.19-1.9-.83q-2.34-1-4.7-2l-2.24-.91L736,331l-2.26-.89c-1.68-.66-3.36-1.31-5.06-1.93l-2.12-.77c-1.61-.58-3.23-1.14-4.85-1.7l-2.43-.81-2.09-.68c-1.74-.56-3.51-1.11-5.27-1.64l-2.47-.73q-2.47-.72-5-1.4l-1.77-.47-.85-.22c-.79-.22-1.59-.42-2.39-.62l-2.52-.62-.84-.2-1.17-.28-1-.23c-1.21-.28-2.41-.55-3.62-.81-1-.22-2-.44-3-.64-1.32-.28-2.66-.54-4-.8l-.24,0-2.61-.49-.17,0-.17,0c-1.09-.2-2.17-.4-3.26-.57l-2.94-.48-.51-.08-1.68-.25-.38-.06h-.07l-2.57-.37c-1.84-.26-3.7-.5-5.56-.71l-2.13-.25-.17,0c-1.75-.19-3.5-.37-5.28-.53l-2.58-.23H653c-1.08-.09-2.15-.18-3.23-.25l-.2,0-.37,0-.29,0h-.35c-.65-.06-1.3-.09-2-.13l-.22,0H646c-.51,0-1-.07-1.55-.09s-1.11-.07-1.66-.09c-.92-.05-1.84-.08-2.77-.12l-1.31,0-1.73-.06-1.32,0-1.38,0-1.49,0h-.19c-1.24,0-2.48,0-3.73,0s-2.43,0-3.64,0c-.53,0-1.07,0-1.6,0h-.53l-2.26.05c-.69,0-1.38,0-2.07.07s-1.24,0-1.86.07-1.33.05-2,.09h-.08l-2.37.12-1.71.1c-1.26.08-2.52.16-3.77.26-1.45.1-2.89.23-4.33.35h0l-3.76.37-1.45.16c-1.12.11-2.24.25-3.35.38-1.3.15-2.6.32-3.89.49l-.68.1-2.92.41-1.62.24c-1.22.19-2.44.38-3.65.59l-.2,0-2.44.43-1.4.25-1,.19c-.7.12-1.41.26-2.12.4s-1.67.31-2.5.49l-1.81.36-.36.08-2.21.47-1.84.4-.22.06-1.44.33-2.67.62-.15,0-.14,0-.5.13-.64.16c-.82.19-1.63.4-2.45.61s-1.45.37-2.17.57l-2.3.61-1.34.37-2.51.71-1.12.32-2.69.81-1.74.54-.67.2-.35.11-.65.2-.34.12-1.58.5q-3.43,1.11-6.82,2.31l-1.74.63-.13,0-1.71.62-.75.28-.43.16c-1,.36-1.92.72-2.88,1.1l-.31.11-.92.36c-.15.06-.31.11-.46.18l-3,1.19-3.16,1.3-.17.07-.05,0q-1.1.45-2.19.93l-.1,0-.09,0-.28.13h0a.94.94,0,0,0-.15.06l-.08,0c-.8.34-1.6.7-2.39,1.05l-.19.08-2.33,1.05-.77.35-2.44,1.14-.16.07-1.46.71h0c-.66.32-1.31.63-2,1s-1.42.68-2.13,1.05a2.91,2.91,0,0,0-.35.18c-.73.33-1.43.7-2.14,1.06q4-13.14,8.72-25.94a480.34,480.34,0,0,1,67.19-122.93C660.11,78.54,796.32,3.93,950.06,1.5h15.52a481.29,481.29,0,0,1,443.7,315.07q4.48,12.21,8.32,24.72c-1.22-.61-2.45-1.22-3.68-1.81l-1.57-.77-.83-.39-.16-.07-.31-.15-.28-.14-.51-.24-.06,0,0,0-.15-.06,0,0c-1.16-.53-2.31-1.07-3.47-1.59h0l-1.87-.84-1.89-.82c-.62-.28-1.25-.56-1.88-.82l-1.9-.8c-1.27-.54-2.55-1.05-3.82-1.57s-2.56-1-3.85-1.51c-.58-.24-1.18-.46-1.78-.68l-.45-.17-1.33-.5-.14-.05-.31-.12c-1.25-.45-2.5-.91-3.76-1.35l-3.47-1.2a2.67,2.67,0,0,0-.26-.09l-.09,0-.48-.16-1.69-.55-1.06-.35-.64-.2c-.18-.07-.37-.13-.55-.18-.58-.19-1.17-.38-1.77-.55-.37-.13-.76-.24-1.14-.36l-.13,0c-.16,0-.33-.09-.49-.15h-.12l-.77-.23c-.52-.17-1.06-.33-1.59-.48l-1.6-.47-2-.57-1.75-.49-.26-.07-3.9-1-.15,0-4.07-1c-.84-.21-1.67-.4-2.51-.59l-.77-.18c-.1,0-.19,0-.29-.06l-.52-.12a6.36,6.36,0,0,0-.73-.16l-.14,0-.39-.09-.87-.2-1.24-.26-1.13-.24a2.17,2.17,0,0,0-.35-.07l-1.21-.25c-.19,0-.39-.08-.59-.12l-1-.2-1.79-.34q-.64-.14-1.29-.24l-1.27-.24L1339,315l-.41-.07c-1-.19-2.07-.37-3.11-.54l-.34-.06-.16,0-.15,0-1.57-.25c-.56-.1-1.13-.18-1.7-.27l-.4-.06-.33-.05-.74-.1c-.21,0-.43-.08-.64-.1l-1.33-.19-1-.14c-.46-.07-.92-.14-1.39-.19l-.14,0h-.12c-.65-.09-1.3-.18-1.94-.24l-.36,0-.21,0h0l-.29,0-.72-.09h-.08c-.63-.08-1.27-.15-1.9-.21l-.17,0h-.07l-.59-.07-.6-.06-.89-.1h-.1l-1.2-.11-2.4-.24h-.22l-.63-.06c-.86-.08-1.71-.15-2.58-.21h-.08l-.53,0h-.29l-.4,0h-.09l-1.3-.09h-.48l-.73-.06-.74,0-.5,0-.75,0h-.46l-.47,0h-.25l-.33,0-.41,0h-.15l-.53,0h-.4l-.38,0c-.34,0-.68,0-1-.05l-.63,0-.73,0-1.57-.05-.84,0h-1.48c-.46,0-.93,0-1.39,0h-.41l-1.4,0h-1.32c-.91,0-1.83,0-2.74,0-1.3,0-2.6,0-3.89,0s-2.37,0-3.55.07h-.56l-1.3,0-1.29,0-.55,0-3.7.16-3.42.2c-1,.06-2.06.13-3.09.21-.6,0-1.19.08-1.78.14l-.36,0-1.51.13h-.15l-1.62.15-1.61.15-1.43.14h-.07c-1,.11-2.09.21-3.12.34l-.26,0-3.08.38c-1,.11-1.9.24-2.85.37-.7.09-1.39.19-2.09.3l-.39.05-.93.13-.38.06-.44.07-1.67.26c-.66.09-1.31.2-2,.31l-.94.16h0l-2.93.51c-1.25.22-2.51.45-3.75.69l-.67.13-.87.17-1.21.24-.13,0-.19,0-1,.2-.32.07c-.67.13-1.34.28-2,.43-.26,0-.51.11-.76.16l-.33.07-.24.05c-.71.15-1.4.31-2.1.48l-.11,0h0l-.51.12-.62.15c-.84.19-1.67.38-2.5.59l-1,.23-.94.24-1.53.38-2.5.65a2.8,2.8,0,0,0-.31.09l-2.28.61-2.36.66-.59.17-2.15.63-.52.15-.26.08-1.56.47-.78.24-.77.24-2.4.76-.16,0-2.4.78-2.66.89-.1,0-2.38.83-2.08.75-1.22.43-2.2.82-.31.12c-.9.33-1.8.68-2.7,1l-2.38.93-.73.3-2.26.91c-1.22.5-2.43,1-3.64,1.54-.56.23-1.12.47-1.67.72l-.52.22-1.42.63-.12.06c-.26.1-.51.22-.77.33l-.08,0a.19.19,0,0,1-.08,0l-2.28,1.05-2.48,1.15-.11.05,0,0c-.86.41-1.71.81-2.56,1.23l-2.59,1.27c-.85.42-1.71.85-2.56,1.29l-1.27.65-1.28.66-2.53,1.34q-2.5,1.33-5,2.71l-.07,0q-2.19,1.23-4.34,2.49l-.49.28-1,.56c-.18.11-.35.22-.53.31s-.41.24-.6.37l-.51.3-.37.23c-.7.41-1.38.83-2.07,1.26l-2.43,1.5-.58.37-.38.24c-.24.14-.49.3-.73.46l-3.12,2c-.16.11-.32.22-.48.31-.34.25-.69.48-1,.7l-.85.57c-.8.53-1.59,1.07-2.37,1.6l-2.34,1.62c-.79.54-1.56,1.1-2.34,1.65-1.54,1.09-3.08,2.21-4.6,3.36l-2.28,1.7-2.35,1.8-.88.7c-.93.72-1.86,1.46-2.78,2.2-.14.1-.28.22-.42.33l0,0a1.71,1.71,0,0,0-.26.21l-.26.2-2.28,1.87-.32.27c-1.06.87-2.1,1.74-3.13,2.62l-3.09,2.67-1.53,1.35-1.51,1.36h0c-1,.91-2,1.83-3,2.75s-1.83,1.71-2.73,2.58l-.11.1h0l-.08.07-.81.79-1.68,1.62-1,.94c-.4.38-.79.77-1.17,1.16l-1.15,1.15h0l-.14.15-.12.12c-.12.12-.24.24-.35.37l-.49.49-.5.49c-.13.15-.28.29-.41.43-.3.31-.6.63-.91.94-.94,1-1.89,2-2.81,3s-1.85,2-2.77,3l-.22.24c-.84.93-1.68,1.86-2.5,2.8s-1.8,2-2.68,3.07a1,1,0,0,0-.1.11l-.74.87c-.16.18-.32.36-.47.55q-.59.68-1.14,1.35l-.16.19-.27.32-1,1.21q-.3.39-.63.78l-.06.08-.19.22-.31.37-.32.4-.14.18-.09.11q-1.1,1.35-2.16,2.7l-1,1.27c-.51.65-1,1.3-1.51,2l-.06.06c-.59.77-1.17,1.55-1.75,2.32l-.34.45c-.1.14-.2.28-.32.43l-.31.42c-.14.19-.28.37-.41.56l-.86,1.15-.83,1.16c-.71,1-1.4,1.94-2.09,2.92l-.63.9a4.68,4.68,0,0,0-.27.4c-.08.1-.14.19-.21.29-.19.25-.36.51-.54.78l-.33.47a5,5,0,0,0-.3.45c-.16.22-.31.44-.45.65l-.27.4c-.2.31-.42.61-.63.92-.34.51-.68,1-1,1.52-.17.25-.35.51-.52.78-.44.65-.86,1.31-1.28,2-.14.19-.26.39-.39.58a.12.12,0,0,1,0,.08l-.27.41-.63,1-.13.22c-.17.25-.33.52-.49.78l-.86,1.36c-.5.8-1,1.61-1.48,2.42s-1.12,1.84-1.66,2.76l-1.16,2c-.09.15-.18.3-.26.46l-.15.25c-.55.95-1.09,1.9-1.63,2.86s-1.25,2.24-1.87,3.37-1.25,2.32-1.87,3.5l-.51,1c-.14.28-.3.57-.45.85l-.51,1h0s0,0,0,0l0,0-.1.17c-.07.15-.15.29-.22.44l-.06.12-.46.92c-.11.21-.21.42-.32.62s-.27.54-.4.81c0,.08-.07.14-.1.21-.12.23-.23.47-.35.71s-.26.51-.38.77-.21.41-.31.62l-.24.52c-.15.28-.29.57-.41.85a.48.48,0,0,0-.08.16l-.08.16c-.06.11-.11.22-.16.33a1.11,1.11,0,0,1-.07.16,2.56,2.56,0,0,0-.11.24.82.82,0,0,0-.09.19c-.14.27-.26.52-.38.78s-.11.24-.16.37l-.07.12c0,.11-.1.22-.16.33s-.21.47-.32.7-.33.71-.48,1.06-.34.72-.5,1.08l-.49,1.08v0a3.52,3.52,0,0,0-.17.39c-.39.85-.77,1.72-1.14,2.58s-.73,1.68-1.09,2.53l-.16.37c0,.11-.09.21-.13.31a2.18,2.18,0,0,0-.09.23l-.06.13-.09.22c-.24.54-.46,1.09-.68,1.64L1020,491l-.81,2c-.14.34-.26.68-.4,1a1.31,1.31,0,0,1,0,.15c-.18.43-.35.87-.52,1.32a1.19,1.19,0,0,1-.08.2c-.19.53-.4,1-.58,1.57-.31.77-.59,1.55-.88,2.34,0,.1-.07.19-.1.28-.38,1-.74,2.06-1.11,3.08a1.87,1.87,0,0,1-.07.22c0,.16-.11.32-.17.48-.11.33-.23.65-.34,1s-.23.65-.33,1v0c-.11.31-.21.61-.31.92-.41,1.18-.8,2.38-1.18,3.57-.14.43-.29.86-.41,1.28,0,.14-.09.28-.13.42-.14.4-.26.8-.39,1.21-.2.65-.4,1.3-.59,1.95,0,.05,0,.08,0,.13l-.08.26c-.21.68-.42,1.37-.61,2a.64.64,0,0,1,0,.07c0,.16-.1.33-.14.49-.12.36-.22.71-.31,1.06s-.15.48-.21.72-.18.62-.26.93-.14.49-.2.73-.06.23-.1.35l-.37,1.36-.12.41c0,.12-.06.25-.1.37-.1.4-.21.79-.31,1.19-.15.55-.28,1.08-.43,1.62,0,.19-.09.39-.14.57-.14.56-.28,1.13-.43,1.7s-.28,1.14-.41,1.7c-.06.21-.1.41-.15.61a2.46,2.46,0,0,1-.07.29c-.13.56-.27,1.11-.39,1.66a.43.43,0,0,1,0,0c-.06.23-.11.44-.15.66s0,.24-.08.36l-.12.48v0s0,0,0,.06a2.86,2.86,0,0,0-.1.42c-.05.18-.09.37-.13.57,0,0,0,.09,0,.14-.09.35-.17.71-.24,1.07s-.12.52-.17.78c0,.06,0,.12,0,.18-.06.27-.11.54-.18.81s-.09.43-.13.66c0,0,0,.1,0,.16-.14.65-.27,1.31-.4,2l-.06.29c0,.09,0,.19,0,.28-.06.29-.13.59-.18.9s-.12.65-.19,1-.09.42-.12.64-.1.52-.14.78a2.21,2.21,0,0,0-.05.25c-.08.37-.15.76-.21,1.14,0,.13-.06.28-.08.42l-.06.32c-.07.37-.13.75-.19,1.11l-.45,2.56s0,.09,0,.14l-.09.53a1.85,1.85,0,0,1,0,.23c-.11.64-.2,1.26-.3,1.89l0,.15-.09.63c0,.19-.06.4-.09.59s0,.35-.08.52l-.06.4c0,.34-.1.68-.14,1-.08.5-.14,1-.22,1.5a2.54,2.54,0,0,1,0,.29c0,.11,0,.22,0,.32a.38.38,0,0,0,0,.1q-.06.33-.09.66c0,.15,0,.29-.06.45l-.06.42v0c-.13,1-.26,2-.37,3-.09.71-.17,1.42-.25,2.13s-.16,1.43-.23,2.15c-.06.45-.1.91-.15,1.38-.08.79-.16,1.59-.23,2.38,0,.09,0,.19,0,.29a1.79,1.79,0,0,1,0,.23c-.13,1.41-.24,2.82-.35,4.24,0,0,0,0,0,.06-.08,1.1-.16,2.2-.22,3.29,0,.21,0,.4,0,.61,0,.43-.05.88-.08,1.32,0,.14,0,.28,0,.42s0,.15,0,.23c0,.34,0,.68,0,1,0,.12,0,.25,0,.37a1.94,1.94,0,0,0,0,.24c0,.14,0,.28,0,.41s0,.29,0,.43l0,.81c0,.14,0,.29,0,.43,0,.36,0,.73,0,1.08s0,.88,0,1.31c0,.21,0,.41,0,.63s0,.52,0,.79c0,.1,0,.2,0,.31s0,.28,0,.42,0,.53,0,.8,0,.35,0,.52,0,.26,0,.39v.1c0,.11,0,.21,0,.32,0,.5,0,1,0,1.51,0,.17,0,.34,0,.51v.15q0,1.69,0,3.39c0,1.25,0,2.48,0,3.73l0,2.09c0,.54,0,1.08,0,1.62s0,1.19.05,1.77c.08,2.75.21,5.47.37,8.19" transform="translate(-104.02 -1)"/><path class="cls-3" d="M1041.6,655.11a92.13,92.13,0,0,1-5.51,7.9,96.15,96.15,0,0,1-154.83-3.62c-1.64-2.33-3.19-4.75-4.62-7.24a96.17,96.17,0,0,1,165,3Z" transform="translate(-104.02 -1)"/><path class="cls-3" d="M1146.08,931.11c0,2.38,0,4.76-.13,7.12l-110-.47c4.22-.24-41.43-.06-37.23-.42l-84,.42c4.19.35-35.73-.24-31.52,0l-109.1.47c-.08-2.36-.13-4.74-.13-7.12a186.07,186.07,0,1,1,372.14,0Z" transform="translate(-104.02 -1)"/><path class="cls-3" d="M665.79,623.81c-15.77,94-77,172.52-160.22,212.31.34,1,.69,1.91,1,2.86q.81,2.22,1.64,4.41,2.19,5.79,4.55,11.52c.22.52.43,1.05.65,1.57s.53,1.29.8,1.93.55,1.29.81,1.92q1,2.28,2,4.53h0l.19.43c.51,1.18,1,2.35,1.55,3.51q1.11,2.49,2.25,5l1.35,2.92q3.64,7.76,7.55,15.35c.4.81.82,1.62,1.25,2.42.05.11.11.22.17.33.45.88.92,1.76,1.39,2.64,0,.05,0,.11.08.15.38.73.77,1.46,1.16,2.19.64,1.2,1.29,2.4,1.95,3.59l2,3.52c.7,1.25,1.4,2.5,2.11,3.74l.27.48c.21.38.44.75.65,1.13,77.69-51.69,128.89-140,128.89-240.34A289.54,289.54,0,0,0,665.79,623.81Z" transform="translate(-104.02 -1)"/><path class="cls-3" d="M1249.78,624.7a288.92,288.92,0,0,0,124.58,288.19l.82-1.43c.69-1.19,1.37-2.38,2-3.58.1-.17.2-.34.29-.52.62-1.11,1.25-2.23,1.86-3.35s1.37-2.5,2.05-3.76,1.34-2.51,2-3.77,1.17-2.21,1.74-3.33q.31-.58.6-1.17c.54-1,1.06-2.07,1.59-3.12.65-1.27,1.28-2.55,1.91-3.83s1.26-2.57,1.88-3.86,1.24-2.57,1.85-3.86a0,0,0,0,0,0,0l1.8-3.87c.6-1.3,1.2-2.61,1.78-3.92s1.08-2.41,1.61-3.62c.09-.19.17-.37.24-.55l0,0c.53-1.22,1.07-2.44,1.58-3.67s1.12-2.63,1.68-4,1-2.43,1.5-3.65c.11-.25.21-.5.3-.74.49-1.2,1-2.4,1.45-3.6.39-1,.78-2,1.16-3,.25-.61.49-1.23.71-1.83q.63-1.62,1.23-3.24c.49-1.3,1-2.61,1.45-3.92.09-.26.19-.51.28-.76C1326.63,797.09,1265.53,718.58,1249.78,624.7Z" transform="translate(-104.02 -1)"/><path class="cls-3" d="M1291.25,515.58c.18-.87.33-1.75.47-2.63.06-.39.13-.79.19-1.18,0,0,0-.08,0-.12.09-.65.18-1.31.26-2,.2-1.5.36-3,.47-4.55,0-.26,0-.53.07-.8.1-1.48.17-3,.21-4.46,0-.83,0-1.65,0-2.48a95.09,95.09,0,0,0-1.42-16.47c-.25,1.45-.53,2.88-.85,4.31-.12.58-.26,1.18-.4,1.76s-.33,1.33-.5,2-.32,1.21-.5,1.82c-.57,2-1.22,4.05-1.93,6-.21.57-.41,1.14-.63,1.7,0,.11-.08.22-.12.33-.22.57-.45,1.14-.68,1.71s-.46,1.14-.71,1.71c0,.13-.12.27-.18.41-.19.47-.41.94-.62,1.41-.86,1.9-1.77,3.76-2.75,5.58-.23.45-.47.88-.71,1.31-.64,1.14-1.29,2.26-2,3.38-.38.62-.76,1.23-1.15,1.84l-1,1.51c-.51.77-1,1.52-1.56,2.26-.28.41-.57.8-.86,1.21-1.65,2.25-3.39,4.43-5.24,6.53-.42.5-.87,1-1.32,1.49s-.89,1-1.36,1.46-.91,1-1.39,1.42-.93.95-1.41,1.41-.94.9-1.42,1.34l-.3.28-.35.32c-.18.18-.38.35-.58.52-.41.37-.82.74-1.24,1.1l-1,.89a94,94,0,0,1-8.54,6.44l-.77.5c-.7.47-1.4.92-2.12,1.37q-3.18,2-6.54,3.69c-.49.26-1,.51-1.48.75s-1.2.59-1.8.87-1.14.53-1.71.78c-.76.34-1.53.66-2.29,1L1232,554l-1.89.72a92.32,92.32,0,0,1-9.53,2.95c-.67.17-1.34.34-2,.49l-1.49.33c-1.77.38-3.57.71-5.38,1l-.93.14c-.67.11-1.35.2-2,.28l-1,.11a2,2,0,0,1-.34,0l-1.35.14c-.61.06-1.22.12-1.82.15-.81.07-1.6.12-2.4.16q-2.07,1.41-4.23,2.69-2.2-1.26-4.32-2.63a96.15,96.15,0,0,1-91.17-79.61,96.16,96.16,0,0,0,94.74,112.62c.82,0,1.65,0,2.48,0s1.65,0,2.47-.09c1,0,2.09-.12,3.13-.21.59,0,1.17-.1,1.74-.16l2.58-.29,1.8-.25.75-.12c.69-.11,1.38-.22,2.07-.35s1.17-.21,1.76-.33l.8-.16c.71-.15,1.43-.3,2.13-.47s1.55-.36,2.31-.56,1.54-.4,2.29-.62,1.52-.44,2.27-.68,1.3-.41,1.94-.62l.86-.3a8.15,8.15,0,0,0,.83-.29c.4-.13.79-.27,1.18-.43s1-.36,1.48-.56,1-.38,1.47-.58,1.21-.5,1.8-.76l.94-.41c.48-.21,1-.43,1.43-.66.22-.09.44-.2.65-.3l.93-.45,0,0,1.17-.58.18-.1,1-.52.06,0,.7-.37c.41-.21.81-.44,1.21-.67.23-.12.47-.25.7-.39a1.65,1.65,0,0,0,.26-.14l.09,0,.75-.43.73-.43c.68-.4,1.36-.81,2-1.24l1-.62c.5-.31,1-.64,1.47-1s1-.66,1.46-1l1.3-.91c1-.73,2-1.46,3-2.23l.7-.55c1-.75,1.87-1.52,2.78-2.31l1-.83c.71-.62,1.4-1.25,2.09-1.89l1-.9c.31-.29.61-.6.92-.9.53-.53,1.07-1.07,1.59-1.61l.07-.07c.5-.52,1-1,1.49-1.58l.1-.11,1-1.15c.35-.39.69-.79,1-1.19.69-.78,1.35-1.58,2-2.39l1-1.22c.73-.94,1.45-1.89,2.13-2.86.22-.3.45-.6.66-.92q.59-.81,1.14-1.65l.76-1.14c.57-.87,1.13-1.76,1.66-2.65.36-.57.7-1.14,1-1.72q1.83-3.15,3.41-6.45c.23-.45.44-.92.65-1.38,0-.1.09-.19.13-.29s.16-.33.23-.5c.54-1.19,1.07-2.4,1.55-3.63.19-.46.36-.92.54-1.38.39-1,.75-2,1.1-3l.51-1.51.48-1.52a1.41,1.41,0,0,0,.09-.32q.2-.56.33-1.11a.17.17,0,0,0,0-.11c.15-.51.29-1,.44-1.54.25-.94.49-1.87.72-2.82.16-.62.3-1.24.43-1.88C1290.91,517.25,1291.09,516.41,1291.25,515.58Z" transform="translate(-104.02 -1)"/><path class="cls-3" d="M649.2,564.69v0c.38.39.76.78,1.15,1.15.84.84,1.68,1.64,2.55,2.43l1,.87a.26.26,0,0,0,.09.09l1.16,1c.9.77,1.82,1.54,2.75,2.28l1,.76.27.21c.4.31.8.62,1.2.91s.8.59,1.2.88.76.56,1.15.82c1,.67,1.91,1.32,2.88,1.94.28.2.59.39.88.57.52.33,1,.66,1.57,1s1.06.65,1.59.95l.13.08,1.13.64c.46.27.91.52,1.38.76s.89.48,1.35.71c.72.39,1.44.76,2.18,1.1l1.11.54c.23.11.45.22.68.31.39.19.78.36,1.17.53s.9.4,1.35.59c.22.11.45.2.68.29l1.3.54.23.09.67.26.68.26,1.45.55c.48.17,1,.35,1.47.51l1.22.41c.5.17,1,.33,1.5.48s1.16.36,1.75.53a7.66,7.66,0,0,0,.82.23q.75.22,1.53.42c.28.08.55.15.83.21.51.13,1,.27,1.56.38.72.17,1.44.34,2.17.48.32.08.65.15,1,.21l1.21.23a.58.58,0,0,0,.14,0h0c.45.09.91.17,1.36.24h0l.37.06a2.11,2.11,0,0,0,.35,0l1,.16.29,0,1.46.19q.45.07.93.12.91.12,1.83.21c1.53.16,3.07.29,4.62.37.24,0,.49,0,.73,0,.79.05,1.59.07,2.38.08s1.51,0,2.26,0a96.21,96.21,0,0,0,94.74-112.62,96.15,96.15,0,0,1-89.75,79.55,1.23,1.23,0,0,1-1.13,0,1.15,1.15,0,0,0-1,0h0a1.56,1.56,0,0,1-1.17,0,1.87,1.87,0,0,0-1.26,0,.8.8,0,0,0-.71,0,.56.56,0,0,1-.44,0l-.07,0a.1.1,0,0,0-.13,0c-.23.24-.34,1.36-.61,1.18-.55-.33-1.1-.66-1.63-1-.13-.07-.24-.15-.36-.23h0l-1.68-.08c-.31,0-.61,0-.92-.06-1.88-.11-3.74-.28-5.6-.51l-1.47-.2-1.39-.19a2.57,2.57,0,0,1-.4-.08c-.81-.11-1.6-.25-2.39-.4l-.36-.06-1-.19a.34.34,0,0,1-.14,0l-1.37-.28-.44-.1c-.57-.12-1.13-.25-1.7-.39q-2-.47-3.93-1l-1.45-.43-1.43-.44c-.41-.12-.82-.25-1.22-.4-.62-.2-1.25-.41-1.86-.64-.43-.15-.85-.3-1.28-.47l-1.15-.43-.56-.22-1-.39c-.46-.18-.93-.37-1.38-.58s-.92-.39-1.37-.6-.9-.4-1.36-.61-1.2-.55-1.79-.85l-.51-.25c-.57-.27-1.13-.56-1.69-.86l-1.31-.69c-.87-.47-1.73-1-2.58-1.45-.43-.24-.86-.5-1.28-.75-.74-.44-1.46-.88-2.18-1.36l-1.08-.69c-1.43-.93-2.84-1.92-4.22-3-.26-.17-.51-.36-.76-.56-1.69-1.26-3.35-2.6-5-4-.49-.41-1-.83-1.46-1.28s-1.12-1-1.67-1.53c-.31-.28-.61-.57-.91-.86-1-1-2-1.95-2.93-3l-1-1c-.28-.3-.57-.61-.84-.93s-.7-.77-1-1.16l-.88-1q-1.46-1.71-2.8-3.48l-.17-.21c-.39-.51-.78-1-1.16-1.55-.59-.8-1.18-1.62-1.74-2.45-.22-.31-.43-.61-.63-.92-.62-.92-1.22-1.84-1.8-2.79-.33-.51-.65-1-1-1.56a1.69,1.69,0,0,1-.17-.29c-.25-.39-.48-.78-.7-1.18,0-.07-.08-.14-.11-.2-.16-.27-.31-.53-.45-.81a.1.1,0,0,1,0-.08c-.21-.34-.39-.68-.57-1-.36-.66-.72-1.34-1.05-2-.25-.48-.49-1-.73-1.46s-.38-.76-.56-1.15l-.43-.94c-.1-.21-.2-.43-.29-.64s-.2-.42-.28-.63a.61.61,0,0,1-.07-.17c-.12-.25-.24-.5-.34-.76l-.53-1.25c-.13-.32-.26-.64-.38-1-.36-.89-.7-1.79-1-2.69-.1-.25-.2-.5-.28-.76q-1-2.76-1.8-5.59c-.17-.58-.33-1.17-.48-1.76s-.31-1.17-.45-1.77c-.08-.29-.15-.58-.22-.88-.13-.55-.26-1.1-.38-1.66-.09-.4-.17-.8-.25-1.2a3,3,0,0,1-.06-.32c-.08-.38-.16-.76-.22-1.15s-.18-.93-.26-1.4a95.09,95.09,0,0,0-1.42,16.47c0,.83,0,1.65,0,2.48,0,1.07.07,2.13.13,3.19l.06.93c0,.1,0,.2,0,.3,0,.46.06.92.11,1.38s.06.75.11,1.12.06.68.1,1a1,1,0,0,0,0,.25c0,.3.05.58.1.87.08.72.17,1.44.27,2.15.08.53.15,1.06.24,1.59.11.71.23,1.42.37,2.12.08.49.18,1,.27,1.46l.24,1.14c.13.63.26,1.24.41,1.86.07.31.15.63.23.94.17.76.37,1.52.58,2.27.1.43.22.85.34,1.25q.31,1.13.66,2.22c.17.56.35,1.11.54,1.67.13.41.27.82.41,1.23.2.57.4,1.13.61,1.7s.41,1.13.63,1.68c.12.31.24.63.38.94.44,1.12.9,2.23,1.4,3.31l.54,1.21c.58,1.28,1.2,2.53,1.85,3.78.3.6.62,1.18.94,1.78,1,1.83,2.05,3.64,3.16,5.39l.63,1c.68,1.07,1.39,2.12,2.12,3.16.21.27.4.55.61.83.32.46.65.89,1,1.34s.51.68.78,1l.84,1.09c.3.37.59.75.91,1.12s.65.8,1,1.2c.12.14.23.29.36.42.3.37.61.71.93,1.07.57.66,1.16,1.31,1.77,2S648.59,564.07,649.2,564.69Z" transform="translate(-104.02 -1)"/><polygon class="cls-4" points="1456.53 575.69 1456.22 575.86 1332.75 536.83 1333.62 646.65 856.15 925.2 373.49 647.4 374.35 539.25 255.96 579.54 255.45 579.25 0 726.74 606.31 1076.79 856.15 936.11 1105.67 1073.23 1711.98 723.17 1456.53 575.69"/></svg>